<svg xmlns="http://www.w3.org/2000/svg" width="300" height="60" fill="none" viewBox="0 0 300 60">
    <path fill="#C8FC50" d="M0 0h300v40c0 11.046-8.954 20-20 20H20C8.954 60 0 51.046 0 40V0z"/>
    <path fill="#111" d="M117.49 26.12v2.816h1.65c.381 0 .638-.095.77-.286.132-.205.198-.455.198-.748v-.748c0-.293-.066-.535-.198-.726-.132-.205-.389-.308-.77-.308h-1.65zM116.698 38h-3.388c-.279 0-.484-.059-.616-.176-.117-.132-.176-.337-.176-.616V22.952c0-.279.059-.477.176-.594.132-.132.337-.198.616-.198h7.326c1.643 0 2.772.345 3.388 1.034.631.675.946 1.555.946 2.64v1.012c0 .616-.095 1.144-.286 1.584-.176.425-.491.733-.946.924.792.088 1.43.41 1.914.968.499.557.748 1.298.748 2.222v4.664c0 .279-.066.484-.198.616-.117.117-.315.176-.594.176h-3.41c-.279 0-.484-.059-.616-.176-.117-.132-.176-.337-.176-.616v-3.366c0-.323-.066-.557-.198-.704-.117-.161-.33-.242-.638-.242h-3.08v4.312c0 .279-.066.484-.198.616-.117.117-.315.176-.594.176zm23.17 0H129.66c-.279 0-.484-.059-.616-.176-.118-.132-.176-.337-.176-.616V22.952c0-.279.058-.477.176-.594.132-.132.337-.198.616-.198h10.208c.278 0 .476.066.594.198.132.117.198.315.198.594v2.574c0 .279-.066.484-.198.616-.118.117-.316.176-.594.176h-6.072v1.694h4.29c.278 0 .476.066.594.198.132.117.198.315.198.594v2.354c0 .279-.066.484-.198.616-.118.117-.316.176-.594.176h-4.29v1.892h6.072c.278 0 .476.066.594.198.132.117.198.315.198.594v2.574c0 .279-.066.484-.198.616-.118.117-.316.176-.594.176zm10.874 0h-3.564c-.279 0-.484-.059-.616-.176-.117-.132-.176-.337-.176-.616V26.406h-3.234c-.279 0-.484-.059-.616-.176-.117-.132-.176-.337-.176-.616v-2.662c0-.279.059-.477.176-.594.132-.132.337-.198.616-.198h11.616c.279 0 .477.066.594.198.132.117.198.315.198.594v2.662c0 .279-.066.484-.198.616-.117.117-.315.176-.594.176h-3.234v10.802c0 .279-.066.484-.198.616-.117.117-.315.176-.594.176zm11.93-11.88v2.816h1.65c.381 0 .638-.095.77-.286.132-.205.198-.455.198-.748v-.748c0-.293-.066-.535-.198-.726-.132-.205-.389-.308-.77-.308h-1.65zM161.88 38h-3.388c-.279 0-.484-.059-.616-.176-.118-.132-.176-.337-.176-.616V22.952c0-.279.058-.477.176-.594.132-.132.337-.198.616-.198h7.326c1.642 0 2.772.345 3.388 1.034.63.675.946 1.555.946 2.64v1.012c0 .616-.096 1.144-.286 1.584-.176.425-.492.733-.946.924.792.088 1.43.41 1.914.968.498.557.748 1.298.748 2.222v4.664c0 .279-.066.484-.198.616-.118.117-.316.176-.594.176h-3.41c-.279 0-.484-.059-.616-.176-.118-.132-.176-.337-.176-.616v-3.366c0-.323-.066-.557-.198-.704-.118-.161-.33-.242-.638-.242h-3.08v4.312c0 .279-.066.484-.198.616-.118.117-.316.176-.594.176zm19.533 0h-3.564c-.278 0-.484-.059-.616-.176-.117-.132-.176-.337-.176-.616v-2.816l-3.366-4.51c-.337-.455-.564-.85-.682-1.188-.102-.337-.154-.843-.154-1.518v-4.224c0-.279.059-.477.176-.594.132-.132.338-.198.616-.198h3.388c.279 0 .477.066.594.198.132.117.198.315.198.594v3.608c0 .147.008.3.022.462.015.161.074.315.176.462l1.012 1.584c.074.132.147.227.22.286.088.059.191.088.308.088h.22c.118 0 .213-.03.286-.088.088-.059.169-.154.242-.286l1.012-1.584c.103-.147.162-.3.176-.462.015-.161.022-.315.022-.462v-3.608c0-.279.059-.477.176-.594.132-.132.338-.198.616-.198h3.278c.279 0 .477.066.594.198.132.117.198.315.198.594v4.224c0 .675-.058 1.18-.176 1.518-.117.337-.337.733-.66 1.188l-3.344 4.532v2.794c0 .279-.066.484-.198.616-.117.117-.315.176-.594.176z"/>
</svg>
