<svg xmlns="http://www.w3.org/2000/svg" width="91" height="26" fill="none" viewBox="0 0 91 26">
    <path fill="#fff" d="M31.024 8.612h-5.088v7.152h1.572c1.8 0 3.228-.096 4.656-.348l-.156-.996c-1.344.204-2.688.312-4.248.312h-.636V9.644h3.9V8.612zm4.728 3h-1.704V7.616H32.86V18.68h1.188v-6.036h1.704v-1.032zm9.242 7.068V7.616h-1.188V18.68h1.188zm-5.688-5.532c.096.24.384.576.72.936.456.492.996 1.032 1.824 1.8l.768-.816c-.72-.636-1.248-1.14-1.764-1.704-.732-.816-.96-1.308-.96-2.256v-2.7h-1.2v2.7c0 .852-.192 1.392-.924 2.22-.54.6-1.164 1.212-1.896 1.86l.78.804c.816-.744 1.452-1.38 1.944-1.92.384-.42.588-.66.696-.924h.012zm9.482 3.048v1.008H58.94v-1.008H48.788zm1.248-7.536v1.032h6.156v1.02c0 1.488-.132 2.868-.432 4.428l1.188.144c.288-1.512.432-2.844.432-4.992V8.66h-7.344zm18.35 10.02V7.616h-1.188V18.68h1.188zm-3.408-6.048v-4.14h-4.98v1.02h3.804v2.124h-3.768v4.368h2.016c1.992 0 3.084-.096 4.2-.264l-.108-.996c-1.248.18-2.208.24-3.804.24H61.21v-2.352h3.768zm5.785 3.636c4.38-2.652 4.548-3.324 4.548-5.508V8.636h-4.956v1.02h3.78v1.092c0 1.704-.168 2.328-3.996 4.572l.624.948zm8.076 2.412V7.616h-1.188V18.68h1.189z"/>
    <path stroke="#fff" d="M13 .5h65C84.904.5 90.5 6.096 90.5 13S84.904 25.5 78 25.5H13C6.096 25.5.5 19.904.5 13S6.096.5 13 .5z"/>
    <g clip-path="url(#clip0)">
        <path fill="#fff" d="M16.259 8c-2.759-.078-5.018 2.194-5.018 5h-.97c-.244 0-.363.3-.19.472l1.512 1.55c.108.11.276.11.385 0l1.511-1.55c.168-.172.05-.473-.195-.473h-.97c0-2.166 1.724-3.916 3.848-3.888 2.015.027 3.712 1.766 3.739 3.833.027 2.172-1.68 3.944-3.793 3.944-.678 0-1.312-.189-1.864-.505-.212-.122-.472-.078-.64.1-.25.255-.2.694.108.872.71.406 1.523.645 2.396.645 2.736 0 4.952-2.317 4.876-5.145C20.924 10.25 18.8 8.072 16.26 8z"/>
    </g>
    <defs>
        <clipPath id="clip0">
            <path fill="#fff" d="M0 0H11V10H0z" transform="translate(10 8)"/>
        </clipPath>
    </defs>
</svg>
