<svg xmlns="http://www.w3.org/2000/svg" width="72" height="24" fill="none" viewBox="0 0 72 24">
    <path fill="#111" stroke="#000" d="M12 .5h48C66.351.5 71.5 5.649 71.5 12S66.351 23.5 60 23.5H12C5.649 23.5.5 18.351.5 12S5.649.5 12 .5z"/>
    <path fill="#C8FC50" d="M25.576 16h-2.928c-1 0-1.744-.2-2.232-.6-.48-.4-.72-1.016-.72-1.848V9.82c0-.832.24-1.448.72-1.848.488-.408 1.232-.612 2.232-.612h2.928c.152 0 .26.036.324.108.072.064.108.172.108.324v1.452c0 .152-.036.264-.108.336-.064.064-.172.096-.324.096h-2.412c-.248 0-.432.052-.552.156-.12.096-.18.244-.18.444v2.856c0 .2.06.348.18.444.12.088.304.132.552.132h2.412c.152 0 .26.036.324.108.072.064.108.172.108.324v1.428c0 .152-.036.264-.108.336-.064.064-.172.096-.324.096zm9.049-2.268c0 .368-.056.704-.168 1.008-.104.296-.296.552-.576.768-.272.208-.652.372-1.14.492-.48.12-1.092.18-1.836.18s-1.36-.06-1.848-.18-.872-.284-1.152-.492c-.272-.216-.464-.472-.576-.768-.104-.304-.156-.64-.156-1.008V9.64c0-.368.052-.7.156-.996.112-.304.304-.564.576-.78.28-.216.664-.384 1.152-.504.488-.12 1.104-.18 1.848-.18s1.356.06 1.836.18c.488.12.868.288 1.14.504.28.216.472.476.576.78.112.296.168.628.168.996v4.092zm-4.728-.432c0 .16.06.296.18.408.12.104.396.156.828.156.432 0 .708-.052.828-.156.12-.112.18-.248.18-.408v-3.228c0-.152-.06-.28-.18-.384-.12-.112-.396-.168-.828-.168-.432 0-.708.056-.828.168-.12.104-.18.232-.18.384V13.3zm8.547 2.7h-1.86c-.152 0-.264-.032-.336-.096-.064-.072-.096-.184-.096-.336V7.792c0-.152.032-.26.096-.324.072-.072.184-.108.336-.108h3.672c1.088 0 1.832.216 2.232.648.4.432.6.996.6 1.692v1.536c0 .696-.2 1.26-.6 1.692-.4.432-1.144.648-2.232.648h-1.38v1.992c0 .152-.036.264-.108.336-.064.064-.172.096-.324.096zm.408-6.396v1.812h1.08c.232 0 .384-.06.456-.18.072-.12.108-.256.108-.408v-.636c0-.152-.036-.288-.108-.408-.072-.12-.224-.18-.456-.18h-1.08zM48.712 16h-1.944c-.152 0-.264-.032-.336-.096-.064-.072-.096-.184-.096-.336v-1.536l-1.836-2.46c-.184-.248-.308-.464-.372-.648-.056-.184-.084-.46-.084-.828V7.792c0-.152.032-.26.096-.324.072-.072.184-.108.336-.108h1.848c.152 0 .26.036.324.108.072.064.108.172.108.324V9.76c0 .08.004.164.012.252s.04.172.096.252l.552.864c.04.072.08.124.12.156.048.032.104.048.168.048h.12c.064 0 .116-.016.156-.048.048-.032.092-.084.132-.156l.552-.864c.056-.08.088-.164.096-.252.008-.088.012-.172.012-.252V7.792c0-.152.032-.26.096-.324.072-.072.184-.108.336-.108h1.788c.152 0 .26.036.324.108.072.064.108.172.108.324v2.304c0 .368-.032.644-.096.828-.064.184-.184.4-.36.648l-1.824 2.472v1.524c0 .152-.036.264-.108.336-.064.064-.172.096-.324.096z"/>
</svg>
