<svg xmlns="http://www.w3.org/2000/svg" width="300" height="54" fill="none" viewBox="0 0 300 54">
    <path fill="#C8FC50" d="M0 27C0 12.088 12.088 0 27 0h246c14.912 0 27 12.088 27 27s-12.088 27-27 27H27C12.088 54 0 41.912 0 27z"/>
    <path fill="#111" d="M85.856 36h-7.56c-2 0-3.488-.4-4.464-1.2-.96-.8-1.44-2.032-1.44-3.696v-7.488c0-1.664.48-2.896 1.44-3.696.976-.8 2.464-1.2 4.464-1.2h6c.304 0 .52.072.648.216.144.128.216.344.216.648v2.904c0 .304-.072.528-.216.672-.128.128-.344.192-.648.192h-4.992c-.496 0-.864.104-1.104.312-.24.192-.36.488-.36.888v5.736c0 .4.088.696.264.888.192.192.472.288.84.288h2.328V27.72c0-.304.064-.52.192-.648.144-.144.368-.216.672-.216h3.72c.304 0 .52.072.648.216.144.128.216.344.216.648v7.416c0 .304-.072.528-.216.672-.128.128-.344.192-.648.192zm10.056-12.24l-1.128 3.648h3.768l-1.128-3.648c-.064-.144-.136-.248-.216-.312-.064-.064-.144-.096-.24-.096h-.6c-.096 0-.184.032-.264.096-.064.064-.128.168-.192.312zm-1.368 11.376c0 .304-.072.528-.216.672-.128.128-.344.192-.648.192h-3.528c-.304 0-.528-.064-.672-.192-.128-.144-.192-.368-.192-.672V28.8c0-.48.072-1.032.216-1.656.16-.624.4-1.352.72-2.184l2.088-5.448c.096-.272.24-.472.432-.6.208-.128.472-.192.792-.192h6.456c.304 0 .552.064.744.192.208.128.36.328.456.6l2.088 5.448c.32.832.552 1.56.696 2.184.16.624.24 1.176.24 1.656v6.336c0 .304-.072.528-.216.672-.128.128-.344.192-.648.192h-3.624c-.32 0-.56-.064-.72-.192-.144-.144-.216-.368-.216-.672v-3.36h-4.248v3.36zM111.62 36h-3.576c-.304 0-.528-.064-.672-.192-.128-.144-.192-.368-.192-.672V19.584c0-.304.064-.52.192-.648.144-.144.368-.216.672-.216h3.864c.256 0 .464.056.624.168.176.112.336.296.48.552l2.16 3.912c.08.144.144.248.192.312.064.064.144.096.24.096h.216c.096 0 .168-.032.216-.096.064-.064.136-.168.216-.312l2.136-3.912c.144-.256.296-.44.456-.552.176-.112.392-.168.648-.168h3.888c.304 0 .52.072.648.216.144.128.216.344.216.648v15.552c0 .304-.072.528-.216.672-.128.128-.344.192-.648.192h-3.696c-.304 0-.528-.064-.672-.192-.128-.144-.192-.368-.192-.672v-8.448l-1.416 2.616c-.144.272-.32.472-.528.6-.192.112-.44.168-.744.168h-.96c-.304 0-.56-.056-.768-.168-.192-.128-.36-.328-.504-.6l-1.416-2.616v8.448c0 .304-.072.528-.216.672-.128.128-.344.192-.648.192zm27.928 0h-11.136c-.304 0-.528-.064-.672-.192-.128-.144-.192-.368-.192-.672V19.584c0-.304.064-.52.192-.648.144-.144.368-.216.672-.216h11.136c.304 0 .52.072.648.216.144.128.216.344.216.648v2.808c0 .304-.072.528-.216.672-.128.128-.344.192-.648.192h-6.624v1.848h4.68c.304 0 .52.072.648.216.144.128.216.344.216.648v2.568c0 .304-.072.528-.216.672-.128.128-.344.192-.648.192h-4.68v2.064h6.624c.304 0 .52.072.648.216.144.128.216.344.216.648v2.808c0 .304-.072.528-.216.672-.128.128-.344.192-.648.192zm17.109 0h-7.584c-.304 0-.528-.064-.672-.192-.128-.144-.192-.368-.192-.672v-2.808c0-.304.064-.52.192-.648.144-.144.368-.216.672-.216h6.456c.208 0 .36-.064.456-.192.112-.144.168-.312.168-.504 0-.272-.056-.472-.168-.6-.096-.128-.248-.2-.456-.216l-3.6-.504c-1.12-.16-2.024-.528-2.712-1.104-.672-.576-1.008-1.536-1.008-2.88v-2.52c0-1.36.44-2.4 1.32-3.12.88-.736 2.096-1.104 3.648-1.104h6.72c.304 0 .52.072.648.216.144.128.216.344.216.648v2.856c0 .304-.072.528-.216.672-.128.128-.344.192-.648.192h-5.592c-.208 0-.368.072-.48.216-.112.128-.168.296-.168.504 0 .208.056.384.168.528.112.144.272.224.48.24l3.576.48c1.12.16 2.024.528 2.712 1.104.688.576 1.032 1.536 1.032 2.88v2.52c0 1.36-.448 2.408-1.344 3.144-.88.72-2.088 1.08-3.624 1.08zm15.519 0h-3.888c-.304 0-.528-.064-.672-.192-.128-.144-.192-.368-.192-.672V23.352h-3.528c-.304 0-.528-.064-.672-.192-.128-.144-.192-.368-.192-.672v-2.904c0-.304.064-.52.192-.648.144-.144.368-.216.672-.216h12.672c.304 0 .52.072.648.216.144.128.216.344.216.648v2.904c0 .304-.072.528-.216.672-.128.128-.344.192-.648.192h-3.528v11.784c0 .304-.072.528-.216.672-.128.128-.344.192-.648.192zm12.893-12.24l-1.128 3.648h3.768l-1.128-3.648c-.064-.144-.136-.248-.216-.312-.064-.064-.144-.096-.24-.096h-.6c-.096 0-.184.032-.264.096-.064.064-.128.168-.192.312zM183.7 35.136c0 .304-.072.528-.216.672-.128.128-.344.192-.648.192h-3.528c-.304 0-.528-.064-.672-.192-.128-.144-.192-.368-.192-.672V28.8c0-.48.072-1.032.216-1.656.16-.624.4-1.352.72-2.184l2.088-5.448c.096-.272.24-.472.432-.6.208-.128.472-.192.792-.192h6.456c.304 0 .552.064.744.192.208.128.36.328.456.6l2.088 5.448c.32.832.552 1.56.696 2.184.16.624.24 1.176.24 1.656v6.336c0 .304-.072.528-.216.672-.128.128-.344.192-.648.192h-3.624c-.32 0-.56-.064-.72-.192-.144-.144-.216-.368-.216-.672v-3.36H183.7v3.36zm18.06-12.096v3.072h1.8c.416 0 .696-.104.84-.312.144-.224.216-.496.216-.816v-.816c0-.32-.072-.584-.216-.792-.144-.224-.424-.336-.84-.336h-1.8zM200.896 36H197.2c-.304 0-.528-.064-.672-.192-.128-.144-.192-.368-.192-.672V19.584c0-.304.064-.52.192-.648.144-.144.368-.216.672-.216h7.992c1.792 0 3.024.376 3.696 1.128.688.736 1.032 1.696 1.032 2.88v1.104c0 .672-.104 1.248-.312 1.728-.192.464-.536.8-1.032 1.008.864.096 1.56.448 2.088 1.056.544.608.816 1.416.816 2.424v5.088c0 .304-.072.528-.216.672-.128.128-.344.192-.648.192h-3.72c-.304 0-.528-.064-.672-.192-.128-.144-.192-.368-.192-.672v-3.672c0-.352-.072-.608-.216-.768-.128-.176-.36-.264-.696-.264h-3.36v4.704c0 .304-.072.528-.216.672-.128.128-.344.192-.648.192zm20.709 0h-3.888c-.304 0-.528-.064-.672-.192-.128-.144-.192-.368-.192-.672V23.352h-3.528c-.304 0-.528-.064-.672-.192-.128-.144-.192-.368-.192-.672v-2.904c0-.304.064-.52.192-.648.144-.144.368-.216.672-.216h12.672c.304 0 .52.072.648.216.144.128.216.344.216.648v2.904c0 .304-.072.528-.216.672-.128.128-.344.192-.648.192h-3.528v11.784c0 .304-.072.528-.216.672-.128.128-.344.192-.648.192z"/>
</svg>
