<svg xmlns="http://www.w3.org/2000/svg" width="300" height="54" fill="none" viewBox="0 0 300 54">
    <path fill="#C8FC50" d="M0 27C0 12.088 12.088 0 27 0h246c14.912 0 27 12.088 27 27s-12.088 27-27 27H27C12.088 54 0 41.912 0 27z"/>
    <path fill="#111" d="M72.24 36h-3.72c-.304 0-.528-.064-.672-.192-.128-.144-.192-.368-.192-.672V19.584c0-.304.064-.52.192-.648.144-.144.368-.216.672-.216h3.72c.304 0 .52.072.648.216.144.128.216.344.216.648v5.208h4.008v-5.208c0-.304.064-.52.192-.648.144-.144.368-.216.672-.216h3.72c.304 0 .52.072.648.216.144.128.216.344.216.648v15.552c0 .304-.072.528-.216.672-.128.128-.344.192-.648.192h-3.72c-.304 0-.528-.064-.672-.192-.128-.144-.192-.368-.192-.672v-5.328h-4.008v5.328c0 .304-.072.528-.216.672-.128.128-.344.192-.648.192zm28.267-4.536c0 .736-.112 1.408-.336 2.016-.208.592-.592 1.104-1.152 1.536-.544.416-1.304.744-2.28.984-.96.24-2.184.36-3.672.36s-2.72-.12-3.696-.36-1.744-.568-2.304-.984c-.544-.432-.928-.944-1.152-1.536-.208-.608-.312-1.28-.312-2.016V23.28c0-.736.104-1.4.312-1.992.224-.608.608-1.128 1.152-1.56.56-.432 1.328-.768 2.304-1.008.976-.24 2.208-.36 3.696-.36s2.712.12 3.672.36c.976.24 1.736.576 2.28 1.008.56.432.944.952 1.152 1.56.224.592.336 1.256.336 1.992v8.184zm-9.456-.864c0 .32.12.592.36.816.24.208.792.312 1.656.312.864 0 1.416-.104 1.656-.312.24-.224.36-.496.36-.816v-6.456c0-.304-.12-.56-.36-.768-.24-.224-.792-.336-1.656-.336-.864 0-1.416.112-1.656.336-.24.208-.36.464-.36.768V30.6zm24.919-11.88h3.576c.304 0 .52.072.648.216.144.128.216.344.216.648v9.312c0 .512-.024.992-.072 1.44-.032.432-.152.944-.36 1.536l-1.2 3.264c-.08.24-.2.448-.36.624-.144.16-.344.24-.6.24h-3.192c-.256 0-.488-.056-.696-.168-.208-.112-.344-.296-.408-.552l-1.104-3.912c-.048-.16-.112-.264-.192-.312-.064-.064-.144-.096-.24-.096h-.216c-.096 0-.184.032-.264.096-.064.048-.12.152-.168.312l-1.128 3.912c-.064.24-.184.424-.36.552-.176.112-.392.168-.648.168h-3.168c-.256 0-.48-.08-.672-.24-.176-.16-.304-.368-.384-.624l-1.2-3.312c-.208-.592-.336-1.104-.384-1.536-.032-.448-.048-.928-.048-1.44v-9.264c0-.304.064-.52.192-.648.144-.144.368-.216.672-.216h3.696c.304 0 .52.072.648.216.144.128.216.344.216.648v8.832l1.392-3.024c.128-.272.296-.464.504-.576.208-.112.464-.168.768-.168h1.008c.304 0 .56.056.768.168.208.112.376.304.504.576l1.392 3.024v-8.832c0-.304.064-.52.192-.648.144-.144.368-.216.672-.216zM136.824 36h-3.888c-.304 0-.528-.064-.672-.192-.128-.144-.192-.368-.192-.672V23.352h-3.528c-.304 0-.528-.064-.672-.192-.128-.144-.192-.368-.192-.672v-2.904c0-.304.064-.52.192-.648.144-.144.368-.216.672-.216h12.672c.304 0 .52.072.648.216.144.128.216.344.216.648v2.904c0 .304-.072.528-.216.672-.128.128-.344.192-.648.192h-3.528v11.784c0 .304-.072.528-.216.672-.128.128-.344.192-.648.192zm22.113-4.536c0 .736-.112 1.408-.336 2.016-.208.592-.592 1.104-1.152 1.536-.544.416-1.304.744-2.28.984-.96.24-2.184.36-3.672.36s-2.72-.12-3.696-.36-1.744-.568-2.304-.984c-.544-.432-.928-.944-1.152-1.536-.208-.608-.312-1.28-.312-2.016V23.28c0-.736.104-1.4.312-1.992.224-.608.608-1.128 1.152-1.56.56-.432 1.328-.768 2.304-1.008.976-.24 2.208-.36 3.696-.36s2.712.12 3.672.36c.976.24 1.736.576 2.28 1.008.56.432.944.952 1.152 1.56.224.592.336 1.256.336 1.992v8.184zm-9.456-.864c0 .32.12.592.36.816.24.208.792.312 1.656.312.864 0 1.416-.104 1.656-.312.24-.224.36-.496.36-.816v-6.456c0-.304-.12-.56-.36-.768-.24-.224-.792-.336-1.656-.336-.864 0-1.416.112-1.656.336-.24.208-.36.464-.36.768V30.6zm22.486 5.4h-3.72c-.304 0-.528-.064-.672-.192-.128-.144-.192-.368-.192-.672V19.584c0-.304.064-.52.192-.648.144-.144.368-.216.672-.216h7.344c2.176 0 3.664.432 4.464 1.296.8.864 1.2 1.992 1.2 3.384v3.072c0 1.392-.4 2.52-1.2 3.384-.8.864-2.288 1.296-4.464 1.296h-2.76v3.984c0 .304-.072.528-.216.672-.128.128-.344.192-.648.192zm.816-12.792v3.624h2.16c.464 0 .768-.12.912-.36.144-.24.216-.512.216-.816v-1.272c0-.304-.072-.576-.216-.816-.144-.24-.448-.36-.912-.36h-2.16zM196.822 36h-12.216c-.304 0-.528-.064-.672-.192-.128-.144-.192-.368-.192-.672V19.584c0-.304.064-.52.192-.648.144-.144.368-.216.672-.216h3.72c.304 0 .52.072.648.216.144.128.216.344.216.648v11.88h3.288v-3.888c0-.304.064-.52.192-.648.144-.144.368-.216.672-.216h3.48c.304 0 .52.072.648.216.144.128.216.344.216.648v7.56c0 .304-.072.528-.216.672-.128.128-.344.192-.648.192zm9.871-12.24l-1.128 3.648h3.768l-1.128-3.648c-.064-.144-.136-.248-.216-.312-.064-.064-.144-.096-.24-.096h-.6c-.096 0-.184.032-.264.096-.064.064-.128.168-.192.312zm-1.368 11.376c0 .304-.072.528-.216.672-.128.128-.344.192-.648.192h-3.528c-.304 0-.528-.064-.672-.192-.128-.144-.192-.368-.192-.672V28.8c0-.48.072-1.032.216-1.656.16-.624.4-1.352.72-2.184l2.088-5.448c.096-.272.24-.472.432-.6.208-.128.472-.192.792-.192h6.456c.304 0 .552.064.744.192.208.128.36.328.456.6l2.088 5.448c.32.832.552 1.56.696 2.184.16.624.24 1.176.24 1.656v6.336c0 .304-.072.528-.216.672-.128.128-.344.192-.648.192h-3.624c-.32 0-.56-.064-.72-.192-.144-.144-.216-.368-.216-.672v-3.36h-4.248v3.36zm20.786.864h-3.888c-.304 0-.528-.064-.672-.192-.128-.144-.192-.368-.192-.672v-3.072l-3.672-4.92c-.368-.496-.616-.928-.744-1.296-.112-.368-.168-.92-.168-1.656v-4.608c0-.304.064-.52.192-.648.144-.144.368-.216.672-.216h3.696c.304 0 .52.072.648.216.144.128.216.344.216.648v3.936c0 .16.008.328.024.504s.08.344.192.504l1.104 1.728c.08.144.16.248.24.312.096.064.208.096.336.096h.24c.128 0 .232-.032.312-.096.096-.064.184-.168.264-.312l1.104-1.728c.112-.16.176-.328.192-.504.016-.176.024-.344.024-.504v-3.936c0-.304.064-.52.192-.648.144-.144.368-.216.672-.216h3.576c.304 0 .52.072.648.216.144.128.216.344.216.648v4.608c0 .736-.064 1.288-.192 1.656-.128.368-.368.8-.72 1.296l-3.648 4.944v3.048c0 .304-.072.528-.216.672-.128.128-.344.192-.648.192z"/>
</svg>
