<svg xmlns="http://www.w3.org/2000/svg" width="28" height="28" fill="none" viewBox="0 0 28 28">
    <path fill="#fff" d="M14 0C6.265 0 0 6.265 0 14s6.265 14 14 14 14-6.265 14-14S21.735 0 14 0zm7.082 11.258c.21 4.714-3.302 9.964-9.52 9.964-1.89 0-3.652-.56-5.134-1.505 1.774.21 3.547-.28 4.959-1.389-1.47-.023-2.707-.991-3.127-2.321.525.105 1.038.07 1.517-.059-1.61-.326-2.73-1.773-2.684-3.325.455.257.969.397 1.517.42-1.493-.991-1.913-2.963-1.038-4.48 1.656 2.03 4.118 3.36 6.906 3.5-.49-2.1 1.097-4.118 3.267-4.118.968 0 1.832.408 2.45 1.062.758-.152 1.482-.432 2.123-.817-.256.782-.781 1.435-1.47 1.855.677-.082 1.33-.257 1.925-.525-.478.665-1.038 1.26-1.691 1.738z"/>
</svg>
