<svg xmlns="http://www.w3.org/2000/svg" width="28" height="28" fill="none" viewBox="0 0 28 28">
    <path fill="#fff" d="M28 25.813C28 27.02 27.02 28 25.812 28H2.188C.98 28 0 27.02 0 25.812V2.188C0 .98.98 0 2.187 0h23.625C27.021 0 28 .98 28 2.187v23.625z"/>
    <path fill="#111" d="M14 3.938c-6.282 0-11.375 4.015-11.375 8.968 0 3.203 2.13 6.013 5.332 7.6-.175.6-1.12 3.865-1.158 4.122 0 0-.022.192.103.266.124.073.271.016.271.016.358-.05 4.15-2.713 4.807-3.176.655.093 1.33.141 2.02.141 6.282 0 11.375-4.015 11.375-8.969 0-4.953-5.093-8.969-11.375-8.969z"/>
    <path fill="#fff" d="M7.71 16.037c-.36 0-.655-.281-.655-.627v-3.898H6.03c-.355 0-.644-.289-.644-.643 0-.354.289-.642.644-.642h3.36c.355 0 .644.288.644.642 0 .354-.289.643-.644.643H8.367v3.898c0 .346-.294.627-.656.627zm5.755-.008c-.273 0-.483-.111-.546-.29l-.325-.851h-2l-.326.851c-.063.179-.272.29-.546.29-.144 0-.286-.031-.417-.091-.18-.083-.355-.313-.155-.932l1.57-4.132c.11-.314.446-.638.873-.647.429.01.765.333.876.648l1.569 4.13c.2.62.025.85-.155.933-.131.06-.274.09-.418.09zm-1.216-2.303l-.655-1.862-.656 1.862h1.311zm2.845 2.215c-.347 0-.63-.27-.63-.601v-4.457c0-.362.301-.656.67-.656.37 0 .67.294.67.656v3.855H17.2c.347 0 .629.27.629.602 0 .332-.282.601-.629.601h-2.105zm3.646.088c-.362 0-.657-.295-.657-.657v-4.49c0-.361.295-.655.657-.655.362 0 .656.294.656.656v1.41l1.83-1.83c.095-.095.224-.147.365-.147.164 0 .328.071.451.194.115.115.184.263.193.416.01.155-.042.297-.145.4l-1.495 1.495 1.615 2.14c.106.139.151.314.126.486-.023.173-.115.329-.254.433-.114.086-.252.133-.395.132-.206.002-.4-.095-.524-.26l-1.54-2.04-.227.228v1.432c0 .363-.294.656-.656.657z"/>
</svg>
