<svg xmlns="http://www.w3.org/2000/svg" width="308" height="580" fill="none" viewBox="0 0 308 580">
    <path fill="#111" stroke="#CFD2D6" stroke-width="4" d="M284 2H24C11.85 2 2 11.85 2 24v532c0 12.15 9.85 22 22 22h260c12.15 0 22-9.85 22-22V24c0-12.15-9.85-22-22-22z"/>
    <path fill="#fff" d="M32.672 98.432c2.352 0 3.488-1.696 3.488-4.176v-.672h3.68v8.528h.688V87.616h-.688v5.328h-3.68v-.08c0-2.48-1.136-4.176-3.488-4.176-2.352 0-3.488 1.696-3.488 4.176v1.392c0 2.48 1.136 4.176 3.488 4.176zm0-9.104c1.904 0 2.8 1.44 2.8 3.728v1.008c0 2.288-.896 3.728-2.8 3.728s-2.8-1.44-2.8-3.728v-1.008c0-2.288.896-3.728 2.8-3.728zm9.859 10.016v.608h13.343v-.608H42.531zm1.983-10.496v6.432h9.633v-.608h-8.944v-5.824h-.689zm27.299 13.264V87.616h-.688v14.496h.688zm-4.256-3.872v-9.392h-.688v3.728h-5.2v-3.728h-.688v9.392h6.576zm-5.888-5.024h5.2V97.6h-5.2v-4.384zm19.075 6.128V96c2.383-.144 4.335-1.424 4.335-3.328v-.736c0-1.984-2.111-3.328-4.671-3.328-2.593 0-4.672 1.344-4.672 3.328v.736c0 1.904 1.903 3.168 4.32 3.328v3.344h-6.32v.608h13.343v-.608h-6.335zm-.337-10.08c2.337 0 3.984 1.184 3.984 2.688v.704c0 1.504-1.648 2.72-3.984 2.72-2.367 0-3.983-1.216-3.983-2.72v-.704c0-1.504 1.615-2.688 3.983-2.688zm18.723 3.664v-.608h-8.752v-4.256h-.672v4.864h9.424zm-11.472 2.368v.608h13.344v-.608H87.658zm2.688 2.336h-.672v4.288h9.616v-.608h-8.944v-3.68zm28.306-6.96h-2.384v-3.056h-.688v7.088h.688v-3.392h2.384v-.64zM105.9 88.176v5.456c4.224 0 5.888-.08 8.112-.4l-.096-.656c-2.208.32-3.76.416-7.328.416v-4.816h-.688zm10.72 13.936v-.624h-8.288v-2.272h7.936v-3.52h-8.688v.624h8.016v2.288h-7.936v3.504h8.96zm12.675-7.36v-6.496h-.688V90.8h-4.912v-2.544h-.688v6.496h6.288zm6.64-3.504h-2.384v-3.632h-.688v8.112h.688v-3.84h2.384v-.64zm-12.24.176h4.912v2.704h-4.912v-2.704zm1.28 5.312v5.328h8.576v-5.328h-8.576zm.688.64h7.2v4.048h-7.2v-4.048zm10.498 5.424h.704l.944-3.568h-1.072l-.576 3.568zM42.32 115.248h-2.384v-3.632h-.688v8.512h.688v-4.24h2.384v-.64zm-4.864 2.704c-2.144.288-3.968.32-7.312.32v-5.088h5.888v-.64h-6.576v6.368c4.256 0 5.712-.032 8.08-.32l-.08-.64zm-1.68 8.512c2.656 0 4.272-1.216 4.272-2.656v-.576c0-1.44-1.616-2.656-4.272-2.656s-4.272 1.216-4.272 2.656v.576c0 1.44 1.616 2.656 4.272 2.656zm0-5.264c2.208 0 3.584.96 3.584 2.032v.576c0 1.072-1.376 2.032-3.584 2.032s-3.584-.96-3.584-2.032v-.576c0-1.072 1.376-2.032 3.584-2.032zm18.61.784v-10.368h-.688v10.368h.688zm-7.952-.864h-.688v4.816h9.024v-.64h-8.336v-4.176zm.625-4.576c.096.272.464.704 1.296 1.424.592.512 1.376 1.152 2.112 1.68l.4-.496c-.688-.48-1.633-1.216-2.304-1.84-1.105-1.024-1.217-1.376-1.217-2.608v-2.4h-.703v2.384c0 1.28.047 1.536-1.2 2.752-.657.624-1.52 1.36-2.576 2.16l.431.512c1.072-.848 1.76-1.44 2.352-1.984.833-.752 1.28-1.296 1.392-1.584h.017zm9.394 2.88v.608h13.344v-.608H56.453zm2.688 2.272h-.672v4.224h9.616v-.608h-8.944v-3.616zm3.984-9.648c-2.304 0-4.448.816-4.448 2.592v.496c0 1.776 2.144 2.592 4.448 2.592 2.304 0 4.448-.88 4.448-2.592v-.496c0-1.776-2.144-2.592-4.448-2.592zm0 5.056c-1.904 0-3.76-.56-3.76-2v-.416c0-1.456 1.856-2.016 3.76-2.016 1.904 0 3.76.56 3.76 2.016v.416c0 1.376-1.856 2-3.76 2zm22.45 9.008v-14.496h-.688v14.496h.689zm-10.608-3.472c4.609-2.592 5.904-3.776 5.904-6.688v-2.928h-6.224v.64H80.2v2.24c0 2.416-.831 3.488-5.6 6.144l.368.592zm20.195-7.488c0-1.744-1.632-2.944-3.472-2.944s-3.472 1.2-3.472 2.944v1.04c0 1.744 1.632 2.944 3.472 2.944s3.472-1.2 3.472-2.944v-.208h3.68v3.968h.688v-8.336h-.688v3.728h-3.68v-.192zm-.672.944c0 1.392-1.168 2.384-2.8 2.384s-2.784-.992-2.784-2.384v-.848c0-1.392 1.152-2.384 2.784-2.384s2.8.992 2.8 2.384v.848zm-3.968 5.456h8.336v4.64h.672v-5.28h-9.008v.64zm22.963 4.56v-14.496h-.688v14.496h.688zm-7.536-3.664c2.352 0 3.504-1.712 3.504-4.192v-1.392c0-2.48-1.152-4.192-3.504-4.192-2.352 0-3.504 1.712-3.504 4.192v1.392c0 2.48 1.152 4.192 3.504 4.192zm0-9.136c1.904 0 2.816 1.456 2.816 3.744v1.008c0 2.288-.912 3.744-2.816 3.744s-2.816-1.456-2.816-3.744v-1.008c0-2.288.912-3.744 2.816-3.744zm24.594 12.8v-.624h-8.256v-2.256h7.904v-3.504h-8.656v.624h7.984v2.272h-7.904v3.488h8.928zm-7.2-10.464c.096.304.528.72 1.424 1.376.624.448 1.264.88 2.064 1.392l.368-.48c-.96-.608-1.6-1.024-2.336-1.584-1.248-.96-1.232-1.376-1.232-2.608v-.848h3.376v-.624h-7.536v.624h3.472v.832c0 1.28.096 1.648-1.2 2.736-.704.592-1.536 1.168-2.608 1.888l.384.512c1.04-.72 1.728-1.216 2.352-1.712.816-.64 1.344-1.184 1.456-1.504h.016zm9.232-.896h-2.384v-3.136h-.688v7.12h.688v-3.36h2.384v-.624zm17.282 1.424h-2.384v-4.56h-.688v10.4h.688v-5.2h2.384v-.64zm-10.16 5.04h-.688v4.72h8.96v-.64h-8.272v-4.08zm.448-8.912c-1.888 0-3.472 1.392-3.472 3.072v1.056c0 1.68 1.584 3.072 3.472 3.072s3.472-1.392 3.472-3.072v-1.056c0-1.68-1.584-3.072-3.472-3.072zm0 6.544c-1.568 0-2.784-1.104-2.784-2.544v-.8c0-1.44 1.216-2.544 2.784-2.544 1.568 0 2.784 1.104 2.784 2.544v.8c0 1.44-1.216 2.544-2.784 2.544zm26.947-1.76H164.5v-5.472h-.688v14.496h.688v-8.384h2.592v-.64zm-11.904-4.304h-.688v9.28h3.344c1.664 0 3.344-.16 4.512-.384l-.096-.64c-1.264.256-2.88.384-4.256.384h-2.816v-8.64zm23.634 4.144v-.608h-8.752v-4.256h-.672v4.864h9.424zm-11.472 2.368v.608h13.344v-.608H167.35zm2.688 2.336h-.672v4.288h9.616v-.608h-8.944v-3.68zm26.499 4.48v-14.496h-.688v14.496h.688zm-7.536-3.664c2.352 0 3.504-1.712 3.504-4.192v-1.392c0-2.48-1.152-4.192-3.504-4.192-2.352 0-3.504 1.712-3.504 4.192v1.392c0 2.48 1.152 4.192 3.504 4.192zm0-9.136c1.904 0 2.816 1.456 2.816 3.744v1.008c0 2.288-.912 3.744-2.816 3.744s-2.816-1.456-2.816-3.744v-1.008c0-2.288.912-3.744 2.816-3.744zm23.186 2.032h-2.384v-3.728h-.688v8.512h.688v-4.144h2.384v-.64zm-6.56 11.12c2.656 0 4.272-1.216 4.272-2.656v-.576c0-1.44-1.616-2.656-4.272-2.656s-4.272 1.216-4.272 2.656v.576c0 1.44 1.616 2.656 4.272 2.656zm0-5.264c2.208 0 3.584.96 3.584 2.032v.576c0 1.072-1.376 2.032-3.584 2.032s-3.584-.96-3.584-2.032v-.576c0-1.072 1.376-2.032 3.584-2.032zm-2.864-5.072c.096.272.464.704 1.296 1.424.592.512 1.376 1.152 2.112 1.68l.4-.496c-.688-.48-1.632-1.216-2.304-1.84-1.104-1.024-1.216-1.376-1.216-2.608v-2.016h-.704v2c0 1.28.048 1.536-1.2 2.752-.656.624-1.52 1.36-2.576 2.16l.432.512c1.072-.848 1.76-1.44 2.352-1.984.832-.752 1.28-1.296 1.392-1.584h.016zm23.459.016h-2.384v-4.528h-.688v10.576h.688v-5.408h2.384v-.64zm-5.2-2.704h-3.888v-1.968h-.688v1.968h-3.792v.608h8.368v-.608zm-4.224 7.216c1.728 0 3.248-.96 3.248-2.368v-.864c0-1.408-1.52-2.368-3.248-2.368-1.728 0-3.248.976-3.248 2.368v.864c0 1.408 1.52 2.368 3.248 2.368zm0-.608c-1.392 0-2.592-.72-2.592-1.776v-.832c0-1.056 1.216-1.776 2.592-1.776 1.376 0 2.592.72 2.592 1.776v.832c0 1.056-1.2 1.776-2.592 1.776zm-.704 1.872h-.688v4h8.928v-.64h-8.24v-3.36zM39.952 144.864H35.6v-2.944h6.352v-.608h-2.544c.384-1.632.464-3.312.464-4.24v-.768h-4.48v.608H39.2v.4c0 1.024-.128 2.656-.496 4h-4.8c.416-1.52.48-3.232.48-4.16v-.848h-4.752v.608h4.08v.512c0 .992-.128 2.608-.528 3.888h-4.576v.608h6.32v2.944h-4.32v5.2h9.344v-5.2zm-.672 4.592h-8v-3.984h8v3.984zm3.25-7.184v.592h13.344v-.592H42.531zm11.728 7.872v-.592h-8.992v-2h8.56v-3.136h-9.312v.592h8.64v1.968h-8.56v3.168h9.664zm-5.056-14.32c-2.207 0-4.447.736-4.447 2.384v.352c0 1.648 2.24 2.384 4.447 2.384 2.209 0 4.449-.8 4.449-2.384v-.352c0-1.648-2.24-2.384-4.449-2.384zm0 4.496c-1.855 0-3.76-.528-3.76-1.792v-.272c0-1.28 1.904-1.808 3.76-1.808 1.857 0 3.76.528 3.76 1.808v.272c0 1.2-1.904 1.792-3.76 1.792zm20.659.176c-.592.064-1.28.128-2.096.176.272-1.168.384-2.432.384-3.408v-.96h-3.2v.624h2.512v.624c0 .88-.08 2.032-.416 3.152-.928.048-2.032.096-3.376.112.336-1.12.48-2.56.48-3.696v-.816h-3.232v.624h2.544v.48c0 1.008-.112 2.288-.512 3.424-.864.016-1.808.016-2.864.016v.608c1.264 0 2.704.016 3.952-.016v2.784h.704v-2.8c1.904-.048 3.648-.176 5.184-.336l-.064-.592zm-2.72 9.6c.528-.448.976-.8 1.408-1.216.784-.752 1.056-1.072 1.2-1.408.112.32.48.72 1.152 1.28.384.32 1.024.8 1.76 1.36l.416-.528c-.72-.528-1.392-1.024-1.824-1.376-.992-.816-1.184-1.152-1.184-2.368v-.784h-.672v.88c0 1.088-.064 1.248-.88 2.08-.464.464-.96.912-1.376 1.264-.416-.352-.912-.784-1.376-1.248-.816-.8-.88-1.008-.88-2.096v-.88h-.672v.784c0 1.216-.208 1.552-1.184 2.368-.432.352-1.12.848-1.84 1.376l.416.528 1.776-1.36c.688-.544 1.04-.96 1.152-1.28.144.336.432.688 1.2 1.408.432.416.88.768 1.408 1.216zm4.752-5.76v-8.72h-.672v7.088h-3.648v.64h3.648v.992h.672zm12.579.272v2.096h-8.128v-2.096h-.64v5.472h9.408v-5.472h-.64zm-10.736-2.048v.576h13.343v-.576H73.736zm2.608 6.848v-2.016h8.128v2.016h-8.128zm4.08-11.248c.287.672 1.311 1.2 2.575 1.776.928.432 1.729.736 2.769 1.152l.272-.544c-1.04-.4-1.777-.688-2.8-1.152-1.648-.736-2.465-1.184-2.465-2.56v-1.088h-.704v1.088c0 1.376-.816 1.824-2.463 2.56-1.025.464-1.76.752-2.8 1.152l.271.544c1.04-.416 1.84-.72 2.769-1.152 1.264-.576 2.287-1.104 2.576-1.776zm19.122 11.952v-14.496h-.688v14.496h.688zm-9.856-13.328h-.688v9.28h3.744c1.664 0 3.344-.16 4.512-.384l-.096-.64c-1.264.256-2.88.384-4.256.384H89.69v-8.64zm19.315.16h-6.528v9.248h3.056c1.504 0 3.616-.128 4.944-.384l-.096-.64c-1.36.272-3.2.384-4.608.384h-2.608v-7.968h5.84v-.64zm6.304 4.192h-2.592v-5.52h-.688v14.496h.688v-8.336h2.592v-.64zm.514 7.568h1.28v-1.376h-1.28v1.376zm12.821-12.32h-6.368v5.984h6.368v-5.984zm-5.76.656h5.152v4.672h-5.152v-4.672zm6 10.56c.256.576 1.056 1.024 2.144 1.472.896.368 1.632.672 2.704 1.024l.24-.528c-1.184-.4-1.856-.672-2.704-1.024-1.616-.688-2.048-1.088-2.048-2.144v-.448h4.368v-.608h-4.368v-1.92h-.672v1.92h-4.464v.608h4.464v.448c0 1.056-.432 1.456-2.048 2.144-.848.352-1.52.624-2.704 1.024l.24.528c1.072-.352 1.808-.656 2.704-1.024 1.088-.448 1.888-.896 2.144-1.472zm4.48-4.064v-7.92h-.672v2.096H129.7v.64h2.992v2.128H129.7v.64h2.992v2.416h.672zm18.914-2.208h-2.592v-5.712h-.688v14.496h.688v-8.144h2.592v-.64zm-12.72 5.312c4.608-2.592 5.872-3.776 5.872-6.688v-2.928h-6.192v.64h5.52v2.24c0 2.416-.8 3.488-5.568 6.144l.368.592zm17.859-4.384c.112.464.736 1.072 1.136 1.488.72.736 1.664 1.664 2.544 2.48l.464-.464c-1.024-.944-2.016-1.904-2.784-2.736-.88-.944-1.056-1.376-1.056-2.672V137.6h3.536v-.624h-7.76v.624h3.536v2.752c0 1.312-.096 1.76-1.12 2.944-.784.896-1.712 1.792-2.784 2.736l.464.496c.928-.8 2-1.92 2.464-2.416.48-.528 1.248-1.36 1.344-1.856h.016zm7.264 7.856v-14.496h-.688v14.496h.688zm12.322.352c2.656 0 4.272-1.216 4.272-2.656v-.576c0-1.44-1.616-2.656-4.272-2.656s-4.272 1.216-4.272 2.656v.576c0 1.44 1.616 2.656 4.272 2.656zm0-5.264c2.208 0 3.584.96 3.584 2.032v.576c0 1.072-1.376 2.032-3.584 2.032s-3.584-.96-3.584-2.032v-.576c0-1.072 1.376-2.032 3.584-2.032zm-2.656-4.896c.112.32.496.704 1.296 1.376.592.496 1.44 1.152 2.128 1.632l.384-.48c-.832-.576-1.648-1.184-2.304-1.76-1.2-1.072-1.232-1.312-1.232-2.576v-1.312h3.376v-.624h-7.536v.624h3.472v1.312c0 1.28.08 1.52-1.2 2.704-.688.64-1.52 1.296-2.576 2.064l.416.496c1.008-.752 1.76-1.36 2.368-1.888.88-.768 1.264-1.216 1.392-1.568h.016zm9.216-.88h-2.384v-3.808h-.688v8.512h.688v-4.064h2.384v-.64zm7.491-2.88h-6.368v6.704h6.368v-6.704zm4.72 9.472v-10.4h-.672v2.432h-2.992v.656h2.992v2.512h-2.992v.656h2.992v4.144h.672zm-8.016-.768h-.688v4.688h9.136v-.64h-8.448v-4.048zm-2.384-8.064h4.992v5.424h-4.992v-5.424zm12.322 5.088v.592h13.344v-.592h-13.344zm11.728 7.872v-.592h-8.992v-2h8.56v-3.136h-9.312v.592h8.64v1.968h-8.56v3.168h9.664zm-5.056-14.32c-2.208 0-4.448.736-4.448 2.384v.352c0 1.648 2.24 2.384 4.448 2.384s4.448-.8 4.448-2.384v-.352c0-1.648-2.24-2.384-4.448-2.384zm0 4.496c-1.856 0-3.76-.528-3.76-1.792v-.272c0-1.28 1.904-1.808 3.76-1.808 1.856 0 3.76.528 3.76 1.808v.272c0 1.2-1.904 1.792-3.76 1.792zm-164.24 23.12h-2.8v-3.632h-.688v7.904h.688v-3.632h2.8v4.208h.688v-8.672h-.688v3.824zm-7.872.896c.24.496.864 1.12 1.248 1.504.544.544 1.04.976 1.568 1.408l.4-.432c-.688-.544-1.248-1.056-1.808-1.632-1.104-1.12-1.12-1.392-1.12-2.672v-2.144h-.704v2.128c0 1.28 0 1.712-1.232 2.992-.624.656-1.056 1.056-1.968 1.808l.416.464c.912-.768 1.232-1.072 1.76-1.6.928-.944 1.168-1.296 1.424-1.824h.016zm4.192 10.128c2.656 0 4.432-1.056 4.432-2.576v-.576c0-1.52-1.776-2.576-4.432-2.576-2.656 0-4.432 1.056-4.432 2.576v.576c0 1.52 1.776 2.576 4.432 2.576zm0-5.104c2.192 0 3.744.816 3.744 1.984v.512c0 1.168-1.552 1.984-3.744 1.984s-3.744-.816-3.744-1.984v-.512c0-1.168 1.552-1.984 3.744-1.984zm12.29-7.456c0 2.544-.063 3.104-5.696 5.504l.273.608c5.663-2.448 6.111-3.088 6.111-6.032v-1.472h-6v.624h5.313v.768zm-3.952 7.68h8.337v4.608h.672v-5.248h-9.009v.64zm11.392-6.272h-2.383v-3.696h-.689v8.368h.688v-4.032h2.385v-.64zm12.707-3.696h-.688v5.728h-2.512v-5.424h-.688v13.472h.688v-7.408h2.512v8.128h.688v-14.496zm-12.384 2.64v.64h7.2v-.64h-3.136v-2.224h-.688v2.224h-3.376zm3.696 8.112c2.08 0 3.104-1.456 3.104-2.688v-.928c0-1.232-1.024-2.688-3.104-2.688s-3.104 1.456-3.104 2.688v.928c0 1.232 1.024 2.688 3.104 2.688zm0-5.664c1.584 0 2.432 1.072 2.432 2.112v.8c0 1.04-.848 2.112-2.432 2.112s-2.432-1.072-2.432-2.112v-.8c0-1.04.848-2.112 2.432-2.112zm10.147 2.944c5.184 0 6.88-.08 9.456-.352l-.064-.624c-1.537.176-2.849.256-4.64.304v-2.064h3.087v-4.848h-.672V162h-5.44v-1.936H71.4v4.848h3.023v2.08c-1.12.032-2.431.032-4.08.032v.624zm7.072 6.448c.528-.448.975-.816 1.407-1.232.785-.736 1.056-1.088 1.2-1.424.112.32.48.704 1.153 1.28.383.336 1.04.832 1.775 1.392l.417-.528c-.72-.528-1.408-1.056-1.84-1.408-.993-.832-1.184-1.28-1.184-2.496v-.864h-.672v.96c0 1.088-.064 1.408-.88 2.208-.465.464-.96.896-1.377 1.248-.416-.352-.912-.784-1.376-1.248-.816-.8-.88-1.12-.88-2.208v-.96h-.672v.864c0 1.216-.207 1.664-1.183 2.496-.433.368-1.12.88-1.84 1.408l.415.528c.736-.56 1.392-1.072 1.776-1.392.689-.56 1.04-.96 1.153-1.28.143.336.431.688 1.2 1.424.431.416.88.784 1.407 1.232zm-5.344-11.488h5.44v1.712h-5.44v-1.712zM81.734 168v-3.888h2.305v-.64h-2.305v-3.856h-.671V168h.672zm7.411-1.744c.112.464.736 1.072 1.136 1.488.72.736 1.664 1.664 2.544 2.48l.464-.464c-1.024-.944-2.016-1.904-2.784-2.736-.88-.944-1.056-1.376-1.056-2.672V161.6h3.536v-.624h-7.76v.624h3.536v2.752c0 1.312-.096 1.76-1.12 2.944-.784.896-1.712 1.792-2.784 2.736l.464.496c.928-.8 2-1.92 2.464-2.416.48-.528 1.248-1.36 1.344-1.856h.016zm7.264 7.856v-14.496h-.688v14.496h.688zm8.947-13.568h-6.353v6.704h6.353v-6.704zm6.576 3.456h-2.384v-4.384h-.688v10.4h.688v-5.376h2.384V164zm-10.192 5.184h-.688v4.752h8.992v-.64h-8.304v-4.112zm-2.049-8h4.977v5.424h-4.977v-5.424zm29.571 4.08h-2.592v-5.648h-.688v14.496h.688v-8.208h2.592v-.64zm-9.696 5.168c2.352 0 3.488-1.696 3.488-4.176v-1.392c0-2.48-1.136-4.176-3.488-4.176-2.352 0-3.488 1.696-3.488 4.176v1.392c0 2.48 1.136 4.176 3.488 4.176zm0-9.104c1.904 0 2.8 1.44 2.8 3.728v1.008c0 2.288-.896 3.728-2.8 3.728s-2.8-1.44-2.8-3.728v-1.008c0-2.288.896-3.728 2.8-3.728zm14.642 2.944c.112.32.496.704 1.296 1.376.592.496 1.44 1.152 2.128 1.632l.384-.48c-.832-.576-1.648-1.184-2.304-1.76-1.2-1.072-1.232-1.312-1.232-2.576v-1.328h3.36v-.624h-7.52v.624h3.472v1.328c0 1.28.08 1.52-1.2 2.704-.688.64-1.52 1.296-2.576 2.064l.416.496c1.008-.752 1.76-1.36 2.368-1.888.88-.768 1.264-1.216 1.392-1.568h.016zm-1.952 5.296h8.432v4.624h.672v-5.264h-9.104v.64zm8.416-1.6h.688v-8.352h-.688v8.352zm6.003.368c5.184 0 6.88-.08 9.456-.352l-.064-.624c-1.536.176-2.848.256-4.64.304v-2.016c1.84-.112 3.104-1.152 3.104-2.48v-.672c0-1.408-1.424-2.496-3.456-2.496s-3.456 1.088-3.456 2.496v.672c0 1.344 1.264 2.368 3.136 2.48v2.032c-1.12.032-2.432.032-4.08.032v.624zm7.216-5.232c0 1.088-1.056 1.952-2.816 1.952-1.76 0-2.816-.864-2.816-1.952v-.544c0-1.088 1.056-1.952 2.816-1.952 1.76 0 2.816.864 2.816 1.952v.544zm4.176 7.36v-5.296h2.304v-.64h-2.304v-4.912h-.672v10.848h.672zm-8.16-.48h-.688v3.936h9.248v-.64h-8.56v-3.296zm15.411-5.2c.144.32.528.704 1.296 1.376.592.512 1.232 1.04 2.128 1.696l.384-.48c-.912-.656-1.648-1.232-2.304-1.824-1.168-1.04-1.232-1.312-1.232-2.576v-1.76h3.36v-.624h-7.52v.624h3.472v1.76c0 1.28.048 1.52-1.2 2.704-.688.64-1.52 1.36-2.576 2.128l.416.496c1.008-.752 1.76-1.408 2.352-1.952.848-.768 1.28-1.216 1.408-1.568h.016zm3.248-.528h3.376V170h.688v-10.384h-.688v4h-3.376v.64zm-3.952 4.896h-.688v4.784h9.136v-.64h-8.448v-4.144zm23.762-3.424h-2.592v-6.112h-.688v14.496h.688v-7.744h2.592v-.64zm-13.76-3.68v.64h8.432v-.64h-3.872v-2.368h-.688v2.368h-3.872zm4.208 8.64c2.176 0 3.344-1.52 3.344-2.944v-.832c0-1.424-1.168-2.944-3.344-2.944s-3.344 1.52-3.344 2.944v.832c0 1.424 1.168 2.944 3.344 2.944zm0-6.08c1.616 0 2.672 1.088 2.672 2.32v.8c0 1.232-1.056 2.32-2.672 2.32s-2.672-1.088-2.672-2.32v-.8c0-1.232 1.056-2.32 2.672-2.32zm14.498 1.648c.112.464.736 1.072 1.136 1.488.72.736 1.664 1.664 2.544 2.48l.464-.464c-1.024-.944-2.016-1.904-2.784-2.736-.88-.944-1.056-1.376-1.056-2.672V161.6h3.536v-.624h-7.76v.624h3.536v2.752c0 1.312-.096 1.76-1.12 2.944-.784.896-1.712 1.792-2.784 2.736l.464.496c.928-.8 2-1.92 2.464-2.416.48-.528 1.248-1.36 1.344-1.856h.016zm7.264 7.856v-14.496h-.688v14.496h.688zm17.123-1.92c0-1.024-1.088-1.888-2.672-1.888s-2.672.864-2.672 1.888v.384c0 1.024 1.088 1.888 2.672 1.888s2.672-.864 2.672-1.888v-.384zm1.76-9.216h-2.384v-3.36h-.688v6.848h.688V163.6h2.384v-.624zm-11.088 5.36h-.688v5.648h1.568c1.024 0 2.208-.08 2.576-.176l-.064-.608c-.544.128-1.68.176-2.288.176h-1.104v-5.04zm9.856.576h-2.832v-1.68h-.688v1.68h-2.944v.592h6.464v-.592zm-1.168 3.616c0 .72-.88 1.344-2.032 1.344-1.152 0-2.032-.624-2.032-1.344v-.288c0-.72.88-1.344 2.032-1.344 1.152 0 2.032.624 2.032 1.344v.288zm-3.936-9.536c0-1.696-1.6-2.864-3.44-2.864-1.84 0-3.44 1.168-3.44 2.864v.816c0 1.712 1.6 2.864 3.44 2.864 1.84 0 3.44-1.168 3.44-2.864v-.816zm-.688.72c0 1.36-1.152 2.304-2.752 2.304-1.6 0-2.752-.944-2.752-2.304v-.624c0-1.36 1.152-2.304 2.752-2.304 1.6 0 2.752.944 2.752 2.304v.624zm20.994 1.552h-2.592v-5.648h-.688v14.496h.688v-8.208h2.592v-.64zm-9.696 5.168c2.352 0 3.488-1.696 3.488-4.176v-1.392c0-2.48-1.136-4.176-3.488-4.176-2.352 0-3.488 1.696-3.488 4.176v1.392c0 2.48 1.136 4.176 3.488 4.176zm0-9.104c1.904 0 2.8 1.44 2.8 3.728v1.008c0 2.288-.896 3.728-2.8 3.728s-2.8-1.44-2.8-3.728v-1.008c0-2.288.896-3.728 2.8-3.728zm-188 33.376v-4h6.208v-.608h-2.576c.272-1.248.464-2.48.464-4.048v-1.664h-9.456v.608h8.784v1.104c0 1.456-.176 2.736-.496 4H28.608v.608h6.464v4h.672zm-4.448-1.408h-.672v4.624h9.632v-.608h-8.96v-4.016zm22.706 4.816h.688v-14.496h-.688v14.496zm-6.16-8.48h3.392v7.76h.688V183.92h-.688v5.072h-3.392v.64zm.816-4.64h-5.36v9.104h1.712c1.584 0 3.425-.096 4.833-.336l-.08-.64c-1.488.272-3.216.336-5.264.336h-.513v-7.824h4.672v-.64zm14.931 9.712v-4h6.208v-.608h-2.576c.272-1.248.464-2.48.464-4.048v-1.664h-9.456v.608h8.784v1.104c0 1.456-.176 2.736-.496 4H56.453v.608h6.464v4h.672zm-4.448-1.408h-.672v4.624h9.632v-.608h-8.96v-4.016zm22.706 4.816h.689v-14.496h-.689v14.496zm-6.16-8.48h3.392v7.76h.689V183.92h-.689v5.072h-3.391v.64zm.817-4.64h-5.36v9.104h1.712c1.584 0 3.424-.096 4.832-.336l-.08-.64c-1.489.272-3.217.336-5.264.336h-.512v-7.824h4.672v-.64zm23.122 9.024v-10.4h-.688v10.4h.688zm-8.08-.72h-.688v4.64h9.152v-.64h-8.464v-4zm3.584-1.824v-7.136h-.688v2.832h-5.008v-2.832h-.688v7.136h6.384zm-5.696-3.68h5.008v3.056h-5.008v-3.056zm26.802-3.616h-.672v2.352h-7.904v-2.352h-.672v6h9.248v-6zm-4.288 13.936v-5.04h6.336v-.608H104.94v.608h6.32v5.04h.688zm-4.288-10.976h7.904v2.432h-7.904v-2.432zm22.499-3.072h-.656v1.904h-7.92v-1.92h-.656v5.28h9.232v-5.264zm-4.16 11.072V192h6.208v-.608h-13.344V192h6.464v3.136h.672zm-4.416-8.56h7.92v2.144h-7.92v-2.144zm-.032 7.216h-.672v4.128h9.632v-.608h-8.96v-3.52zm23.138 4.32v-14.496h-.688v14.496h.688zm-7.536-3.664c2.352 0 3.504-1.712 3.504-4.192v-1.392c0-2.48-1.152-4.192-3.504-4.192-2.352 0-3.504 1.712-3.504 4.192v1.392c0 2.48 1.152 4.192 3.504 4.192zm0-9.136c1.904 0 2.816 1.456 2.816 3.744v1.008c0 2.288-.912 3.744-2.816 3.744s-2.816-1.456-2.816-3.744v-1.008c0-2.288.912-3.744 2.816-3.744zm26.627 1.76h-2.384v-3.456h-.688v8.032h.688v-3.936h2.384v-.64zm-12.752-2.656v5.824c4.224 0 5.888-.08 8.112-.4l-.096-.656c-2.208.32-3.76.416-7.328.416v-5.184h-.688zm1.792 8.24v5.408h8.576v-5.408h-8.576zm.688.64h7.2v4.128h-7.2v-4.128zm24.243-4.032h-2.592v-5.648h-.688v14.496h.688v-8.208h2.592v-.64zm-9.696 5.168c2.352 0 3.488-1.696 3.488-4.176v-1.392c0-2.48-1.136-4.176-3.488-4.176-2.352 0-3.488 1.696-3.488 4.176v1.392c0 2.48 1.136 4.176 3.488 4.176zm0-9.104c1.904 0 2.8 1.44 2.8 3.728v1.008c0 2.288-.896 3.728-2.8 3.728s-2.8-1.44-2.8-3.728v-1.008c0-2.288.896-3.728 2.8-3.728zm21.794 6.112v-7.824h-.688v7.824h.688zm-4.528 6.656c.528-.448.976-.864 1.408-1.28.768-.736 1.056-1.12 1.2-1.424.112.288.464.704 1.136 1.28.384.336 1.04.88 1.776 1.44l.416-.528c-.72-.528-1.424-1.072-1.84-1.456-.96-.88-1.168-1.312-1.168-2.528v-1.216h-.672v1.312c0 1.088-.08 1.392-.88 2.24-.448.464-.96.944-1.376 1.296-.416-.352-.928-.832-1.376-1.296-.8-.848-.88-1.152-.88-2.24v-1.312h-.672v1.216c0 1.216-.224 1.648-1.184 2.528-.416.384-1.12.928-1.84 1.456l.416.528c.736-.56 1.392-1.104 1.776-1.44.672-.576 1.04-.992 1.152-1.28.144.304.432.688 1.2 1.424.432.416.88.832 1.408 1.28zm.272-11.056c0-1.696-1.632-2.912-3.472-2.912s-3.472 1.216-3.472 2.912v.928c0 1.712 1.632 2.912 3.472 2.912s3.472-1.216 3.472-2.912v-.928zm-.688.832c0 1.36-1.184 2.352-2.784 2.352-1.6 0-2.784-.992-2.784-2.352v-.736c0-1.36 1.184-2.352 2.784-2.352 1.6 0 2.784.992 2.784 2.352v.736zm18.466 10.24h.688v-14.496h-.688v14.496zm-6.656-8.96h3.68v8.24h.688V183.92h-.688v4.576h-3.68v.656zm-3.28-4.176h-.688v8.96h1.728c1.664 0 3.344-.144 4.512-.368l-.096-.64c-1.264.256-2.88.368-4.256.368h-1.2v-8.32zm23.667 3.664v-.736c0-1.984-2.112-3.328-4.672-3.328-2.592 0-4.672 1.344-4.672 3.328v.736c0 1.088.672 2.016 1.728 2.624v4.08h-3.728v.608h13.344v-.608h-3.728v-4.096c1.04-.592 1.728-1.52 1.728-2.608zm-4.672-3.408c2.336 0 3.984 1.184 3.984 2.688v.704c0 1.504-1.648 2.704-3.984 2.704-2.368 0-3.984-1.2-3.984-2.704v-.704c0-1.504 1.616-2.688 3.984-2.688zm0 6.752c.816 0 1.6-.144 2.272-.416v3.776h-4.544v-3.76c.672.256 1.44.4 2.272.4zm7.57 4.72h1.28v-1.376H220v1.376zM40.448 246.112v-14.496h-.688v14.496h.688zM29.84 242.64c4.608-2.592 5.904-3.776 5.904-6.688v-2.928H29.52v.64h5.552v2.24c0 2.416-.832 3.488-5.6 6.144l.368.592zm20.195-7.488c0-1.744-1.632-2.944-3.472-2.944s-3.473 1.2-3.473 2.944v1.04c0 1.744 1.632 2.944 3.472 2.944s3.473-1.2 3.473-2.944v-.208h3.68v3.968h.688v-8.336h-.688v3.728h-3.68v-.192zm-.672.944c0 1.392-1.169 2.384-2.8 2.384-1.633 0-2.785-.992-2.785-2.384v-.848c0-1.392 1.153-2.384 2.785-2.384 1.631 0 2.8.992 2.8 2.384v.848zm-3.968 5.456h8.335v4.64h.673v-5.28h-9.008v.64zm11.058-3.28v.592h13.344v-.592H56.453zm11.728 7.872v-.592h-8.992v-2h8.56v-3.136h-9.312v.592h8.64v1.968h-8.56v3.168h9.664zm-5.056-14.32c-2.208 0-4.448.736-4.448 2.384v.352c0 1.648 2.24 2.384 4.448 2.384s4.448-.8 4.448-2.384v-.352c0-1.648-2.24-2.384-4.448-2.384zm0 4.496c-1.856 0-3.76-.528-3.76-1.792v-.272c0-1.28 1.904-1.808 3.76-1.808 1.856 0 3.76.528 3.76 1.808v.272c0 1.2-1.904 1.792-3.76 1.792zm22.579 9.792v-14.496h-.688v5.248h-4.497v.656h4.496v8.592h.689zm-4.4-13.152h-6.609v9.184h3.36c1.504 0 3.776-.128 5.104-.384l-.096-.64c-1.36.272-3.36.384-4.767.384h-2.913v-7.888h5.92v-.656zm17.698 8.384h-9.344v4.72h9.344v-4.72zm-.672 4.112h-8v-3.504h8v3.504zm-10.672-6.592v.608h13.344v-.608H87.658zm11.328-2.048v-.608h-8.592v-3.28h8.528v-.608h-9.2v4.496h9.264zm6.659 5.616c2.352 0 3.488-1.696 3.488-4.176v-.672h3.68v8.528h.688v-14.496h-.688v5.328h-3.68v-.08c0-2.48-1.136-4.176-3.488-4.176-2.352 0-3.488 1.696-3.488 4.176v1.392c0 2.48 1.136 4.176 3.488 4.176zm0-9.104c1.904 0 2.8 1.44 2.8 3.728v1.008c0 2.288-.896 3.728-2.8 3.728s-2.8-1.44-2.8-3.728v-1.008c0-2.288.896-3.728 2.8-3.728zm25.122 12.784v-14.496h-.688v14.496h.688zm-7.536-3.664c2.352 0 3.504-1.712 3.504-4.192v-1.392c0-2.48-1.152-4.192-3.504-4.192-2.352 0-3.504 1.712-3.504 4.192v1.392c0 2.48 1.152 4.192 3.504 4.192zm0-9.136c1.904 0 2.816 1.456 2.816 3.744v1.008c0 2.288-.912 3.744-2.816 3.744s-2.816-1.456-2.816-3.744v-1.008c0-2.288.912-3.744 2.816-3.744zm13.618 9.12c2.352 0 3.488-1.696 3.488-4.176v-1.392c0-2.48-1.136-4.176-3.488-4.176-2.352 0-3.488 1.696-3.488 4.176v1.392c0 2.48 1.136 4.176 3.488 4.176zm0-9.104c1.904 0 2.8 1.44 2.8 3.728v1.008c0 2.288-.896 3.728-2.8 3.728s-2.8-1.44-2.8-3.728v-1.008c0-2.288.896-3.728 2.8-3.728zm9.664 1.808h-2.576v-3.52h-.672v14.496h.672v-6.224h2.576v-.64h-2.576v-3.472h2.576v-.64zm12.035 10.976v-14.496h-.688v14.496h.688zm-10.608-3.472c4.608-2.592 5.904-3.776 5.904-6.688v-2.928h-6.224v.64h5.552v2.24c0 2.416-.832 3.488-5.6 6.144l.368.592zm24.931 3.472v-14.496h-.704v14.496h.704zm-11.824-3.36c5.504 0 7.184-.08 9.76-.352l-.064-.624c-2.624.288-4.56.336-9.696.352v.624zm8.176-7.2c0-1.824-1.952-2.912-3.696-2.912-1.744 0-3.696 1.088-3.696 2.88v.976c0 1.792 1.952 2.864 3.696 2.864 1.744 0 3.696-1.072 3.696-2.896v-.912zm-.672.88c0 1.28-1.36 2.304-3.024 2.304s-3.024-1.024-3.024-2.272v-.912c0-1.248 1.36-2.272 3.024-2.272s3.024 1.024 3.024 2.304v.848zm21.33 5.584v-10.4h-.688v10.4h.688zm-8.08-.72h-.688v4.64h9.152v-.64h-8.464v-4zm3.584-1.824v-7.136h-.688v2.832h-5.008v-2.832h-.688v7.136h6.384zm-5.696-3.68h5.008v3.056h-5.008v-3.056zm21.73-1.408c0 .448 0 .848-.032 1.2l-5.632.128.032.624 5.488-.128c-.352 1.296-1.52 2.16-5.504 3.792l.272.608c5.632-2.352 6.064-3.232 6.064-6.176v-1.872h-5.936v.624h5.248v1.2zm7.424 1.6h-2.384v-4.368h-.688v10.4h.688v-5.392h2.384v-.64zm-10.192 5.312h-.688v4.64h8.992v-.64h-8.304v-4zm10.467-3.024v.592h13.344v-.592h-13.344zm11.728 7.872v-.592h-8.992v-2h8.56v-3.136h-9.312v.592h8.64v1.968h-8.56v3.168h9.664zm-5.056-14.32c-2.208 0-4.448.736-4.448 2.384v.352c0 1.648 2.24 2.384 4.448 2.384s4.448-.8 4.448-2.384v-.352c0-1.648-2.24-2.384-4.448-2.384zm0 4.496c-1.856 0-3.76-.528-3.76-1.792v-.272c0-1.28 1.904-1.808 3.76-1.808 1.856 0 3.76.528 3.76 1.808v.272c0 1.2-1.904 1.792-3.76 1.792zM40.976 255.616h-.688v5.584h-2.512v-5.28h-.688v13.472h.688v-7.552h2.512v8.272h.688v-14.496zm-12.08 2.992h3.024v2.272c0 1.04-.144 1.776-1.136 2.896-.784.896-1.296 1.456-2.224 2.32l.448.464c.96-.896 1.616-1.632 2.064-2.144.512-.592 1.136-1.344 1.216-1.808h.016c.096.464.56 1.008 1.12 1.664.592.704 1.216 1.344 1.952 2.096l.464-.448c-.768-.752-1.456-1.472-2.16-2.336-.96-1.184-1.072-1.696-1.072-2.704v-2.272h2.912v-.624h-2.912v-2.08h-.688v2.08h-3.024v.624zm22.099-.064c0-1.68-1.904-2.576-3.6-2.576-1.697 0-3.6.896-3.6 2.544v.848c0 1.648 1.904 2.528 3.6 2.528 1.695 0 3.6-.88 3.6-2.56v-.784zm-.672.752c0 1.136-1.313 1.968-2.928 1.968-1.617 0-2.928-.832-2.928-1.936v-.784c0-1.104 1.312-1.936 2.928-1.936 1.615 0 2.927.832 2.927 1.968v.72zm4.288 10.816v-14.496h-.688V266h-3.825v.656h3.825v3.456h.688zm-11.792-5.904c1.68 0 3.008 0 4.127-.016v5.44h.705v-5.456c2.08-.048 3.343-.144 4.96-.32l-.064-.624c-2.624.288-4.592.336-9.728.352v.624zm27.298-3.12h-2.592v-5.472h-.688v14.496h.688v-8.384h2.592v-.64zm-11.904-4.304h-.688v9.28h3.344c1.664 0 3.344-.16 4.512-.384l-.096-.64c-1.264.256-2.88.384-4.256.384h-2.816v-8.64zm25.794 4.544h-2.592v-5.712h-.688v14.496h.688v-8.144h2.592v-.64zm-12.72 5.312c4.608-2.592 5.872-3.776 5.872-6.688v-2.928h-6.192v.64h5.52v2.24c0 2.416-.8 3.488-5.567 6.144l.367.592zm24.339 3.472h.688v-14.496h-.688v3.632h-3.952v-2.272h-6.528v9.248h6.528v-2.48h3.952v6.368zm-9.792-12.496h5.152v7.968h-5.152v-7.968zm9.792 2.272v3.216h-3.952v-3.216h3.952zm5.955 7.456v.608h13.344v-.608h-13.344zm1.728-10.24v.624h8.8v1.84c0 2.256-.24 4.064-.608 6.048l.656.08c.4-2.128.624-4.032.624-6.544v-2.048h-9.472zm13.314 6.16c3.744 0 6.208-.048 8.112-.304l-.064-.64c-1.76.224-4.128.304-7.376.304v-2.512h5.408v-3.76h-6.08v.624h5.408v2.512h-5.408v3.776zm2.128 1.856v4.976h8.688v-4.976h-8.688zm.688.64h7.312v3.696h-7.312v-3.696zm8-10.144h-.688v8.496h.688v-8.496zm17.25 14.496v-14.496h-.688v14.496h.688zm-7.536-3.664c2.352 0 3.504-1.712 3.504-4.192v-1.392c0-2.48-1.152-4.192-3.504-4.192-2.352 0-3.504 1.712-3.504 4.192v1.392c0 2.48 1.152 4.192 3.504 4.192zm0-9.136c1.904 0 2.816 1.456 2.816 3.744v1.008c0 2.288-.912 3.744-2.816 3.744s-2.816-1.456-2.816-3.744v-1.008c0-2.288.912-3.744 2.816-3.744zm13.619 9.12c2.352 0 3.488-1.696 3.488-4.176v-1.392c0-2.48-1.136-4.176-3.488-4.176-2.352 0-3.488 1.696-3.488 4.176v1.392c0 2.48 1.136 4.176 3.488 4.176zm0-9.104c1.904 0 2.8 1.44 2.8 3.728v1.008c0 2.288-.896 3.728-2.8 3.728s-2.8-1.44-2.8-3.728v-1.008c0-2.288.896-3.728 2.8-3.728zm9.664 1.808h-2.576v-3.52h-.672v14.496h.672v-6.224h2.576v-.64h-2.576v-3.472h2.576v-.64zm12.035 10.976v-14.496h-.688v14.496h.688zm-10.608-3.472c4.608-2.592 5.904-3.776 5.904-6.688v-2.928h-6.224v.64h5.552v2.24c0 2.416-.832 3.488-5.6 6.144l.368.592zm24.258-5.536v-.592h-8.832v-1.68h8.48v-2.816h-9.152v.592h8.496v1.648h-8.48v2.848h9.488zm-11.568 1.52v.608h13.344v-.608h-13.344zm11.728 7.52v-.592h-8.992v-1.776h8.56v-2.944h-9.312v.592h8.64v1.776h-8.56v2.944h9.664zM28.576 288.336c5.184 0 6.88-.08 9.456-.352l-.064-.624c-1.536.176-2.848.256-4.64.304v-2.016c1.84-.112 3.104-1.152 3.104-2.48v-.672c0-1.408-1.424-2.496-3.456-2.496s-3.456 1.088-3.456 2.496v.672c0 1.344 1.264 2.368 3.136 2.48v2.032c-1.12.032-2.432.032-4.08.032v.624zm7.216-5.232c0 1.088-1.056 1.952-2.816 1.952-1.76 0-2.816-.864-2.816-1.952v-.544c0-1.088 1.056-1.952 2.816-1.952 1.76 0 2.816.864 2.816 1.952v.544zm4.176 7.36v-5.296h2.304v-.64h-2.304v-4.912h-.672v10.848h.672zm-8.16-.48h-.688v3.936h9.248v-.64h-8.56v-3.296zm18.37-6.32h3.6v4.48h.689v-8.528h-.688v3.408h-3.6v.64zm.033 10.8c2.767 0 4.352-1.216 4.352-2.656v-.56c0-1.44-1.585-2.656-4.352-2.656-2.768 0-4.352 1.216-4.352 2.656v.56c0 1.44 1.584 2.656 4.352 2.656zm0-5.248c2.288 0 3.663.96 3.663 2.032v.56c0 1.072-1.376 2.032-3.663 2.032-2.288 0-3.664-.96-3.664-2.032v-.56c0-1.072 1.376-2.032 3.664-2.032zm-3.248-5.008c.096.272.463.704 1.295 1.424.592.512 1.377 1.152 2.112 1.68l.4-.496c-.688-.48-1.632-1.216-2.303-1.84-1.105-1.024-1.216-1.376-1.216-2.608v-2.096h-.704v2.08c0 1.28.047 1.536-1.2 2.752-.657.624-1.52 1.36-2.577 2.16l.432.512c1.073-.848 1.76-1.44 2.352-1.984.832-.752 1.28-1.296 1.392-1.584h.017zm21.922-4.592h-.688v5.728h-2.512v-5.424h-.688v13.472h.688v-7.408h2.512v8.128h.688v-14.496zm-12.384 2.64v.64h7.2v-.64h-3.136v-2.224h-.688v2.224h-3.376zm3.696 8.112c2.08 0 3.104-1.456 3.104-2.688v-.928c0-1.232-1.024-2.688-3.104-2.688s-3.104 1.456-3.104 2.688v.928c0 1.232 1.024 2.688 3.104 2.688zm0-5.664c1.584 0 2.432 1.072 2.432 2.112v.8c0 1.04-.848 2.112-2.432 2.112s-2.432-1.072-2.432-2.112v-.8c0-1.04.848-2.112 2.432-2.112zm12.242 3.088h4.257v3.552h-6.32v.608h13.343v-.608h-6.335v-3.552h4.272v-7.024h-.672v2.736h-7.872v-2.72h-.672v7.008zm8.545-.608h-7.872v-3.072h7.872v3.072zm15.65-7.568h-.688v14.496h.688v-14.496zm-6.464 5.68h2.976v8.096h.688V279.92h-.688v4.72H90.17v.656zm-2.256 1.04c.096.464.56 1.008 1.12 1.664.592.704 1.216 1.344 2 2.144l.464-.448c-.816-.8-1.504-1.52-2.208-2.384-.96-1.184-1.056-1.696-1.056-2.912v-3.648h-.704v3.648c0 1.248-.144 1.984-1.136 3.104-.784.896-1.296 1.456-2.256 2.352l.448.464c.992-.928 1.648-1.664 2.096-2.176.512-.592 1.136-1.344 1.216-1.808h.016zm21.651-1.696v-.736c0-1.984-2.112-3.328-4.672-3.328-2.592 0-4.672 1.344-4.672 3.328v.736c0 1.088.672 2.016 1.728 2.624v4.08h-3.728v.608h13.344v-.608h-3.728v-4.096c1.04-.592 1.728-1.52 1.728-2.608zm-4.672-3.408c2.336 0 3.984 1.184 3.984 2.688v.704c0 1.504-1.648 2.704-3.984 2.704-2.368 0-3.984-1.2-3.984-2.704v-.704c0-1.504 1.616-2.688 3.984-2.688zm0 6.752c.816 0 1.6-.144 2.272-.416v3.776h-4.544v-3.76c.672.256 1.44.4 2.272.4zm7.57 4.72h1.28v-1.376h-1.28v1.376zm19.493-7.392h-2.432v-5.696h-.688v14.496h.688v-8.16h2.432v-.64zm-13.904 5.328c5.184 0 6.88-.08 9.456-.352l-.064-.624c-1.76.192-3.2.288-5.408.32v-4.864h-.688V290c-.944.016-2.016.016-3.296.016v.624zm.752-8.976h6.464v.912c0 1.936-.128 3.52-.416 4.912l.656.096c.32-1.44.432-3.104.432-5.12v-1.424h-7.136v.624zm17.154-1.36c-1.888 0-3.504 1.392-3.504 3.072v1.056c0 1.68 1.616 3.072 3.504 3.072s3.504-1.392 3.504-3.072v-1.056c0-1.68-1.616-3.072-3.504-3.072zm0 6.544c-1.568 0-2.816-1.104-2.816-2.544v-.8c0-1.44 1.248-2.544 2.816-2.544 1.568 0 2.816 1.104 2.816 2.544v.8c0 1.44-1.248 2.544-2.816 2.544zm7.968 3.168v-10.4h-.672v2.208h-2.912v.64h2.912v2.768h-2.912v.64h2.912v4.144h.672zm-8.016-.768h-.688v4.688h9.136v-.64h-8.448v-4.048zm25.267.768v-10.4h-.688v10.4h.688zm-8.032-.768h-.688v4.688h9.088v-.64h-8.4v-4.048zm.288-8.944c-1.888 0-3.504 1.392-3.504 3.072v1.056c0 1.68 1.616 3.072 3.504 3.072s3.504-1.392 3.504-3.072v-1.056c0-1.68-1.616-3.072-3.504-3.072zm0 6.544c-1.568 0-2.816-1.104-2.816-2.544v-.8c0-1.44 1.248-2.544 2.816-2.544 1.568 0 2.816 1.104 2.816 2.544v.8c0 1.44-1.248 2.544-2.816 2.544zm15.938-.32v-3.216h-.688v3.216h-5.552v.608h13.344v-.608h-7.104zm-4.464-5.616h8.816v.592c0 1.44-.208 2.784-.416 3.792l.688.08c.192-.928.4-2.352.4-3.936v-1.136h-9.488v.608zm4.896 13.552c2.592 0 4.432-.976 4.432-2.496v-.592c0-1.52-1.84-2.496-4.432-2.496-2.592 0-4.432.976-4.432 2.496v.592c0 1.52 1.84 2.496 4.432 2.496zm0-4.976c2.096 0 3.76.752 3.76 1.92v.528c0 1.168-1.664 1.92-3.76 1.92s-3.76-.752-3.76-1.92v-.528c0-1.168 1.664-1.92 3.76-1.92zm12.099-3.232c.112.464.736 1.072 1.136 1.488.72.736 1.664 1.664 2.544 2.48l.464-.464c-1.024-.944-2.016-1.904-2.784-2.736-.88-.944-1.056-1.376-1.056-2.672V281.6h3.536v-.624h-7.76v.624h3.536v2.752c0 1.312-.096 1.76-1.12 2.944-.784.896-1.712 1.792-2.784 2.736l.464.496c.928-.8 2-1.92 2.464-2.416.48-.528 1.248-1.36 1.344-1.856h.016zm7.264 7.856v-14.496h-.688v14.496h.688zm13.282-9.472v-.608h-8.752v-3.968h-.672v4.576h9.424zm-11.472 2.048v.608h13.344v-.608h-13.344zm6.672 7.776c2.608 0 4.464-.944 4.464-2.464v-.608c0-1.52-1.856-2.464-4.464-2.464-2.608 0-4.464.944-4.464 2.464V292c0 1.52 1.856 2.464 4.464 2.464zm0-4.928c2.112 0 3.792.72 3.792 1.888v.544c0 1.168-1.68 1.888-3.792 1.888s-3.792-.72-3.792-1.888v-.544c0-1.168 1.68-1.888 3.792-1.888zm7.251-2.112v.608h13.344v-.608h-13.344zm2.688 2.272h-.672v4.224h9.616v-.608h-8.944v-3.616zm3.984-9.648c-2.304 0-4.448.816-4.448 2.592v.496c0 1.776 2.144 2.592 4.448 2.592 2.304 0 4.448-.88 4.448-2.592v-.496c0-1.776-2.144-2.592-4.448-2.592zm0 5.056c-1.904 0-3.76-.56-3.76-2v-.416c0-1.456 1.856-2.016 3.76-2.016 1.904 0 3.76.56 3.76 2.016v.416c0 1.376-1.856 2-3.76 2zM42.32 307.248h-2.384v-3.632h-.688v8.512h.688v-4.24h2.384v-.64zm-4.864 2.704c-2.144.288-3.968.32-7.312.32v-5.088h5.888v-.64h-6.576v6.368c4.256 0 5.712-.032 8.08-.32l-.08-.64zm-1.68 8.512c2.656 0 4.272-1.216 4.272-2.656v-.576c0-1.44-1.616-2.656-4.272-2.656s-4.272 1.216-4.272 2.656v.576c0 1.44 1.616 2.656 4.272 2.656zm0-5.264c2.208 0 3.584.96 3.584 2.032v.576c0 1.072-1.376 2.032-3.584 2.032s-3.584-.96-3.584-2.032v-.576c0-1.072 1.376-2.032 3.584-2.032zm18.61.784v-10.368h-.688v10.368h.688zm-7.952-.864h-.688v4.816h9.024v-.64h-8.336v-4.176zm.625-4.576c.096.272.464.704 1.296 1.424.592.512 1.376 1.152 2.112 1.68l.4-.496c-.688-.48-1.633-1.216-2.304-1.84-1.105-1.024-1.217-1.376-1.217-2.608v-2.4h-.703v2.384c0 1.28.047 1.536-1.2 2.752-.657.624-1.52 1.36-2.576 2.16l.431.512c1.072-.848 1.76-1.44 2.352-1.984.833-.752 1.28-1.296 1.392-1.584h.017zm21.298 9.568v-14.496h-.688v14.496h.688zm-7.536-3.664c2.352 0 3.504-1.712 3.504-4.192v-1.392c0-2.48-1.152-4.192-3.504-4.192-2.352 0-3.504 1.712-3.504 4.192v1.392c0 2.48 1.152 4.192 3.504 4.192zm0-9.136c1.904 0 2.816 1.456 2.816 3.744v1.008c0 2.288-.912 3.744-2.816 3.744s-2.816-1.456-2.816-3.744v-1.008c0-2.288.912-3.744 2.816-3.744zm24.755 12.8v-14.496h-.688v14.496h.688zm-10.608-3.472c4.608-2.592 5.903-3.776 5.903-6.688v-2.928h-6.224v.64H80.2v2.24c0 2.416-.831 3.488-5.6 6.144l.368.592zm20.194-7.488c0-1.744-1.632-2.944-3.472-2.944s-3.472 1.2-3.472 2.944v1.04c0 1.744 1.632 2.944 3.472 2.944s3.472-1.2 3.472-2.944v-.208h3.68v3.968h.688v-8.336h-.688v3.728h-3.68v-.192zm-.672.944c0 1.392-1.168 2.384-2.8 2.384s-2.784-.992-2.784-2.384v-.848c0-1.392 1.152-2.384 2.784-2.384s2.8.992 2.8 2.384v.848zm-3.968 5.456h8.336v4.64h.672v-5.28h-9.008v.64zm24.803-5.408h-2.384v-4.528h-.688v10.576h.688v-5.408h2.384v-.64zm-5.2-2.704h-3.888v-1.968h-.688v1.968h-3.792v.608h8.368v-.608zm-4.224 7.216c1.728 0 3.248-.96 3.248-2.368v-.864c0-1.408-1.52-2.368-3.248-2.368-1.728 0-3.248.976-3.248 2.368v.864c0 1.408 1.52 2.368 3.248 2.368zm0-.608c-1.392 0-2.592-.72-2.592-1.776v-.832c0-1.056 1.216-1.776 2.592-1.776 1.376 0 2.592.72 2.592 1.776v.832c0 1.056-1.2 1.776-2.592 1.776zm-.704 1.872h-.688v4h8.928v-.64h-8.24v-3.36zm25.01-1.056h-4.352v-2.944h6.352v-.608h-2.544c.384-1.632.464-3.312.464-4.24v-.768h-4.48v.608h3.808v.4c0 1.024-.128 2.656-.496 4h-4.8c.416-1.52.48-3.232.48-4.16v-.848h-4.752v.608h4.08v.512c0 .992-.128 2.608-.528 3.888h-4.576v.608h6.32v2.944h-4.32v5.2h9.344v-5.2zm-.672 4.592h-8v-3.984h8v3.984zm3.25-7.184v.592h13.344v-.592h-13.344zm11.728 7.872v-.592h-8.992v-2h8.56v-3.136h-9.312v.592h8.64v1.968h-8.56v3.168h9.664zm-5.056-14.32c-2.208 0-4.448.736-4.448 2.384v.352c0 1.648 2.24 2.384 4.448 2.384s4.448-.8 4.448-2.384v-.352c0-1.648-2.24-2.384-4.448-2.384zm0 4.496c-1.856 0-3.76-.528-3.76-1.792v-.272c0-1.28 1.904-1.808 3.76-1.808 1.856 0 3.76.528 3.76 1.808v.272c0 1.2-1.904 1.792-3.76 1.792zm22.291 9.792v-.624h-8.256v-2.256h7.904v-3.504h-8.656v.624h7.984v2.272h-7.904v3.488h8.928zm-7.2-10.464c.096.304.528.72 1.424 1.376.624.448 1.264.88 2.064 1.392l.368-.48c-.96-.608-1.6-1.024-2.336-1.584-1.248-.96-1.232-1.376-1.232-2.608v-.848h3.376v-.624h-7.536v.624h3.472v.832c0 1.28.096 1.648-1.2 2.736-.704.592-1.536 1.168-2.608 1.888l.384.512c1.04-.72 1.728-1.216 2.352-1.712.816-.64 1.344-1.184 1.456-1.504h.016zm9.232-.896h-2.384v-3.136h-.688v7.12h.688v-3.36h2.384v-.624zm16.002-3.136h-.688v5.728h-2.512v-5.424h-.688v13.472h.688v-7.408h2.512v8.128h.688v-14.496zm-12.384 2.64v.64h7.2v-.64h-3.136v-2.224h-.688v2.224h-3.376zm3.696 8.112c2.08 0 3.104-1.456 3.104-2.688v-.928c0-1.232-1.024-2.688-3.104-2.688s-3.104 1.456-3.104 2.688v.928c0 1.232 1.024 2.688 3.104 2.688zm0-5.664c1.584 0 2.432 1.072 2.432 2.112v.8c0 1.04-.848 2.112-2.432 2.112s-2.432-1.072-2.432-2.112v-.8c0-1.04.848-2.112 2.432-2.112zm17.811-1.072h3.616v4.32h.688v-8.336h-.688v3.376h-3.616v.64zm-4.8 5.952h8.432v4.608h.672v-5.248h-9.104v.64zm1.6-5.456c.096.272.464.704 1.296 1.424.592.512 1.376 1.152 2.112 1.68l.4-.496c-.688-.48-1.632-1.216-2.304-1.84-1.104-1.024-1.216-1.376-1.216-2.608v-2.064h-.704v2.048c0 1.28.048 1.536-1.2 2.752-.656.624-1.52 1.36-2.576 2.16l.432.512c1.072-.848 1.76-1.44 2.352-1.984.832-.752 1.28-1.296 1.392-1.584h.016zm23.234-.928h-2.384v-3.584h-.688v7.792h.688v-3.568h2.384v-.64zm-5.2-2.144h-3.888v-1.76h-.688v1.76h-3.792v.608h8.368v-.608zm-4.224 6.16c1.728 0 3.248-.752 3.248-2.016v-.64c0-1.264-1.52-2.016-3.248-2.016-1.728 0-3.248.768-3.248 2.016v.64c0 1.264 1.52 2.016 3.248 2.016zm0-.608c-1.392 0-2.592-.512-2.592-1.424v-.608c0-.912 1.216-1.424 2.592-1.424 1.376 0 2.592.512 2.592 1.424v.608c0 .912-1.2 1.424-2.592 1.424zm7.392 7.504v-.624h-8.256v-1.936h7.904V312.4h-8.656v.624h7.984v1.92h-7.904v3.168h8.928zm13.507-8.24h2.304v-.64h-2.304v-5.616h-.688v14.496h.688v-8.24zm-6.832 5.376c2.896-3.264 3.344-4.368 3.344-6.32v-3.904h-3.312v.688h2.624v3.152c0 1.712-.368 2.864-3.184 5.936l.528.448zm-3.984-1.312c3.024-3.216 3.296-4.112 3.296-5.776v-3.136h-3.36v.688h2.672v2.384c0 1.392-.112 2.368-3.12 5.376l.512.464zm24.786-5.296v-.736c0-1.984-2.112-3.328-4.672-3.328-2.592 0-4.672 1.344-4.672 3.328v.736c0 1.088.672 2.016 1.728 2.624v4.08h-3.728v.608h13.344v-.608h-3.728v-4.096c1.04-.592 1.728-1.52 1.728-2.608zm-4.672-3.408c2.336 0 3.984 1.184 3.984 2.688v.704c0 1.504-1.648 2.704-3.984 2.704-2.368 0-3.984-1.2-3.984-2.704v-.704c0-1.504 1.616-2.688 3.984-2.688zm0 6.752c.816 0 1.6-.144 2.272-.416v3.776h-4.544v-3.76c.672.256 1.44.4 2.272.4zm10.595 1.76v-.72c0-2.048 3.2-2.688 3.2-5.152v-.32c0-1.744-1.248-2.848-3.248-2.848-1.488 0-2.592.784-3.216 1.472l.464.464c.784-.832 1.632-1.264 2.784-1.264 1.328 0 2.512.704 2.512 2.192v.304c0 2.08-3.2 2.848-3.2 5.104v.768h.704zm-.912 3.056h1.12v-1.344h-1.12v1.344zM28.608 363.344v.608h13.344v-.608H28.608zm1.728-10.24v.624h8.8v1.84c0 2.256-.24 4.064-.608 6.048l.656.08c.4-2.128.624-4.032.624-6.544v-2.048h-9.472zm13.315 6.16c3.743 0 6.207-.048 8.111-.304l-.063-.64c-1.76.224-4.128.304-7.377.304v-2.512h5.408v-3.76h-6.08v.624h5.409v2.512H43.65v3.776zm2.127 1.856v4.976h8.689v-4.976h-8.688zm.689.64h7.312v3.696h-7.313v-3.696zm8-10.144h-.688v8.496h.688v-8.496zm17.25 14.496v-14.496h-.688v14.496h.688zm-7.536-3.664c2.352 0 3.504-1.712 3.504-4.192v-1.392c0-2.48-1.152-4.192-3.504-4.192-2.352 0-3.504 1.712-3.504 4.192v1.392c0 2.48 1.152 4.192 3.504 4.192zm0-9.136c1.904 0 2.816 1.456 2.816 3.744v1.008c0 2.288-.912 3.744-2.816 3.744s-2.816-1.456-2.816-3.744v-1.008c0-2.288.912-3.744 2.816-3.744zm13.618 9.12c2.352 0 3.488-1.696 3.488-4.176v-1.392c0-2.48-1.136-4.176-3.488-4.176-2.352 0-3.488 1.696-3.488 4.176v1.392c0 2.48 1.136 4.176 3.488 4.176zm0-9.104c1.904 0 2.8 1.44 2.8 3.728v1.008c0 2.288-.895 3.728-2.8 3.728-1.904 0-2.8-1.44-2.8-3.728v-1.008c0-2.288.897-3.728 2.8-3.728zm9.664 1.808h-2.575v-3.52h-.672v14.496h.672v-6.224h2.575v-.64h-2.575v-3.472h2.575v-.64zm12.035 10.976v-14.496h-.688v14.496h.688zM88.89 362.64c4.608-2.592 5.904-3.776 5.904-6.688v-2.928H88.57v.64h5.552v2.24c0 2.416-.832 3.488-5.6 6.144l.368.592zm26.323-5.312h-2.592v-5.712h-.688v14.496h.688v-8.144h2.592v-.64zm-12.72 5.312c4.608-2.592 5.872-3.776 5.872-6.688v-2.928h-6.192v.64h5.52v2.24c0 2.416-.8 3.488-5.568 6.144l.368.592zm16.338-2.304c5.184 0 6.88-.08 9.456-.352l-.064-.624c-1.536.176-2.848.256-4.64.304v-2.016c1.84-.112 3.104-1.152 3.104-2.48v-.672c0-1.408-1.424-2.496-3.456-2.496s-3.456 1.088-3.456 2.496v.672c0 1.344 1.264 2.368 3.136 2.48v2.032c-1.12.032-2.432.032-4.08.032v.624zm7.216-5.232c0 1.088-1.056 1.952-2.816 1.952-1.76 0-2.816-.864-2.816-1.952v-.544c0-1.088 1.056-1.952 2.816-1.952 1.76 0 2.816.864 2.816 1.952v.544zm4.176 7.36v-5.296h2.304v-.64h-2.304v-4.912h-.672v10.848h.672zm-8.16-.48h-.688v3.936h9.248v-.64h-8.56v-3.296zm18.37-6.32h3.6v4.48h.688v-8.528h-.688v3.408h-3.6v.64zm.032 10.8c2.768 0 4.352-1.216 4.352-2.656v-.56c0-1.44-1.584-2.656-4.352-2.656-2.768 0-4.352 1.216-4.352 2.656v.56c0 1.44 1.584 2.656 4.352 2.656zm0-5.248c2.288 0 3.664.96 3.664 2.032v.56c0 1.072-1.376 2.032-3.664 2.032-2.288 0-3.664-.96-3.664-2.032v-.56c0-1.072 1.376-2.032 3.664-2.032zm-3.248-5.008c.096.272.464.704 1.296 1.424.592.512 1.376 1.152 2.112 1.68l.4-.496c-.688-.48-1.632-1.216-2.304-1.84-1.104-1.024-1.216-1.376-1.216-2.608v-2.096h-.704v2.08c0 1.28.048 1.536-1.2 2.752-.656.624-1.52 1.36-2.576 2.16l.432.512c1.072-.848 1.76-1.44 2.352-1.984.832-.752 1.28-1.296 1.392-1.584h.016zm9.907 6.608c5.184 0 7.184-.08 9.76-.352l-.064-.624c-1.52.176-2.912.256-4.752.304v-3.52h3.2V358h-6.432v-4.48h6.384v-.624h-7.072v5.728h3.232v3.536c-1.184.016-2.56.032-4.256.032v.624zm11.824 3.296v-14.496h-.688v14.496h.688zm8.963-13.568h-6.368v6.704h6.368v-6.704zm4.72 9.472v-10.4h-.672v2.432h-2.992v.656h2.992v2.512h-2.992v.656h2.992v4.144h.672zm-8.016-.768h-.688v4.688h9.136v-.64h-8.448v-4.048zm-2.384-8.064h4.992v5.424h-4.992v-5.424zm12.338 13.616h.704l.944-3.568h-1.072l-.576 3.568zM33.472 380.88c.144.32.528.704 1.296 1.376.592.512 1.232 1.04 2.128 1.696l.384-.48c-.912-.656-1.648-1.232-2.304-1.824-1.168-1.04-1.232-1.312-1.232-2.576v-1.04h3.424v-.624h-3.424v-1.92h-.688v1.92h-3.552v.624h3.552v1.04c0 1.28.048 1.52-1.2 2.704-.688.64-1.52 1.36-2.576 2.128l.416.496c1.008-.752 1.76-1.408 2.352-1.952.848-.768 1.28-1.216 1.408-1.568h.016zm-.944 4.432h-.688v4.624h9.136v-.64h-8.448v-3.984zm7.328.624h.688v-10.32h-.688v10.32zm13.362-2.544c.304-1.312.512-3.312.512-5.168v-1.6h-9.375v.608h8.704v1.36c0 1.408-.224 3.488-.528 4.8h-10V384h6.303v6.112h.688V384h6.352v-.608h-2.656zm6.755-6.544c-2.32 0-2.992 2.144-2.992 4.272v.992c0 2.128.672 4.272 2.992 4.272s2.992-2.144 2.992-4.272v-.208h2.4v7.488h.688V375.92h-.688v5.344h-2.4v-.144c0-2.128-.672-4.272-2.992-4.272zm0 8.88c-1.888 0-2.304-1.792-2.304-3.696v-.832c0-1.904.416-3.696 2.304-3.696s2.304 1.792 2.304 3.696v.832c0 1.904-.416 3.696-2.304 3.696zm8.096 4.384h.688v-14.496h-.688v14.496zm7.522-10.56c0 3.28-.72 3.792-4.847 6.72l.4.56c3.12-2.16 4.383-3.2 4.863-4.896h3.136v7.456h.689V375.92h-.688v5.376H76.15c.08-.528.112-1.136.112-1.856v-2.352h-5.36v.64h4.688v1.824zm6.4 10.56h.689v-14.496h-.689v14.496zm17.571 0v-14.496h-.688v14.496h.688zm-7.536-3.664c2.352 0 3.504-1.712 3.504-4.192v-1.392c0-2.48-1.152-4.192-3.504-4.192-2.352 0-3.504 1.712-3.504 4.192v1.392c0 2.48 1.152 4.192 3.504 4.192zm0-9.136c1.904 0 2.816 1.456 2.816 3.744v1.008c0 2.288-.912 3.744-2.816 3.744s-2.816-1.456-2.816-3.744v-1.008c0-2.288.912-3.744 2.816-3.744zm13.619 9.12c2.352 0 3.488-1.696 3.488-4.176v-1.392c0-2.48-1.136-4.176-3.488-4.176-2.352 0-3.488 1.696-3.488 4.176v1.392c0 2.48 1.136 4.176 3.488 4.176zm0-9.104c1.904 0 2.8 1.44 2.8 3.728v1.008c0 2.288-.896 3.728-2.8 3.728s-2.8-1.44-2.8-3.728v-1.008c0-2.288.896-3.728 2.8-3.728zm9.664 1.808h-2.576v-3.52h-.672v14.496h.672v-6.224h2.576v-.64h-2.576v-3.472h2.576v-.64zm12.034 10.976v-14.496h-.688v14.496h.688zm-10.608-3.472c4.608-2.592 5.904-3.776 5.904-6.688v-2.928h-6.224v.64h5.552v2.24c0 2.416-.832 3.488-5.6 6.144l.368.592zm24.258-5.536v-.592h-8.832v-1.68h8.48v-2.816h-9.152v.592h8.496v1.648h-8.48v2.848h9.488zm-11.568 1.52v.608h13.344v-.608h-13.344zm11.728 7.52v-.592h-8.992v-1.776h8.56v-2.944h-9.312v.592h8.64v1.776h-8.56v2.944h9.664zm11.795-7.616v-3.216h-.688v3.216h-5.552v.608h13.344v-.608h-7.104zm-4.464-5.616h8.816v.592c0 1.44-.208 2.784-.416 3.792l.688.08c.192-.928.4-2.352.4-3.936v-1.136h-9.488v.608zm4.896 13.552c2.592 0 4.432-.976 4.432-2.496v-.592c0-1.52-1.84-2.496-4.432-2.496-2.592 0-4.432.976-4.432 2.496v.592c0 1.52 1.84 2.496 4.432 2.496zm0-4.976c2.096 0 3.76.752 3.76 1.92v.528c0 1.168-1.664 1.92-3.76 1.92s-3.76-.752-3.76-1.92v-.528c0-1.168 1.664-1.92 3.76-1.92zm16.835 4.624v-5.264h3.76v-.608h-13.344v.608h3.76v5.264h.672v-5.264h4.48v5.264h.672zm-2.912-7.568c2.368 0 4.672-1.104 4.672-2.912v-.704c0-1.888-2.304-2.896-4.672-2.896-2.4 0-4.672 1.008-4.672 2.896v.704c0 1.808 2.288 2.912 4.672 2.912zm0-5.856c2.144 0 3.984.848 3.984 2.256v.672c0 1.408-1.84 2.272-3.984 2.272-2.176 0-3.984-.864-3.984-2.272v-.672c0-1.408 1.808-2.256 3.984-2.256zm19.682-1.072h-.688v5.728h-2.512v-5.424h-.688v13.472h.688v-7.408h2.512v8.128h.688v-14.496zm-12.384 2.64v.64h7.2v-.64h-3.136v-2.224h-.688v2.224h-3.376zm3.696 8.112c2.08 0 3.104-1.456 3.104-2.688v-.928c0-1.232-1.024-2.688-3.104-2.688s-3.104 1.456-3.104 2.688v.928c0 1.232 1.024 2.688 3.104 2.688zm0-5.664c1.584 0 2.432 1.072 2.432 2.112v.8c0 1.04-.848 2.112-2.432 2.112s-2.432-1.072-2.432-2.112v-.8c0-1.04.848-2.112 2.432-2.112zm12.242 3.088h4.256v3.552h-6.32v.608h13.344v-.608h-6.336v-3.552h4.272v-7.024h-.672v2.736h-7.872v-2.72h-.672v7.008zm8.544-.608h-7.872v-3.072h7.872v3.072zm15.651-7.568h-.688v14.496h.688v-14.496zm-6.464 5.68h2.976v8.096h.688V375.92h-.688v4.72h-2.976v.656zm-2.256 1.04c.096.464.56 1.008 1.12 1.664.592.704 1.216 1.344 2 2.144l.464-.448c-.816-.8-1.504-1.52-2.208-2.384-.96-1.184-1.056-1.696-1.056-2.912v-3.648h-.704v3.648c0 1.248-.144 1.984-1.136 3.104-.784.896-1.296 1.456-2.256 2.352l.448.464c.992-.928 1.648-1.664 2.096-2.176.512-.592 1.136-1.344 1.216-1.808h.016zm21.65-1.696v-.736c0-1.984-2.112-3.328-4.672-3.328-2.592 0-4.672 1.344-4.672 3.328v.736c0 1.088.672 2.016 1.728 2.624v4.08h-3.728v.608h13.344v-.608h-3.728v-4.096c1.04-.592 1.728-1.52 1.728-2.608zm-4.672-3.408c2.336 0 3.984 1.184 3.984 2.688v.704c0 1.504-1.648 2.704-3.984 2.704-2.368 0-3.984-1.2-3.984-2.704v-.704c0-1.504 1.616-2.688 3.984-2.688zm0 6.752c.816 0 1.6-.144 2.272-.416v3.776h-4.544v-3.76c.672.256 1.44.4 2.272.4zm7.571 4.72h1.28v-1.376h-1.28v1.376zM40.576 410.016v-10.4h-.688v10.4h.688zm-8.032-.768h-.688v4.688h9.088v-.64h-8.4v-4.048zm.288-8.944c-1.888 0-3.504 1.392-3.504 3.072v1.056c0 1.68 1.616 3.072 3.504 3.072s3.504-1.392 3.504-3.072v-1.056c0-1.68-1.616-3.072-3.504-3.072zm0 6.544c-1.568 0-2.816-1.104-2.816-2.544v-.8c0-1.44 1.248-2.544 2.816-2.544 1.568 0 2.816 1.104 2.816 2.544v.8c0 1.44-1.248 2.544-2.816 2.544zm15.938-.32v-3.216h-.688v3.216h-5.551v.608h13.343v-.608H48.77zm-4.464-5.616h8.817v.592c0 1.44-.209 2.784-.416 3.792l.688.08c.191-.928.4-2.352.4-3.936v-1.136h-9.489v.608zm4.897 13.552c2.591 0 4.431-.976 4.431-2.496v-.592c0-1.52-1.84-2.496-4.431-2.496-2.593 0-4.433.976-4.433 2.496v.592c0 1.52 1.84 2.496 4.432 2.496zm0-4.976c2.095 0 3.76.752 3.76 1.92v.528c0 1.168-1.665 1.92-3.76 1.92-2.097 0-3.76-.752-3.76-1.92v-.528c0-1.168 1.663-1.92 3.76-1.92zm12.098-3.232c.112.464.736 1.072 1.136 1.488.72.736 1.664 1.664 2.544 2.48l.464-.464c-1.024-.944-2.016-1.904-2.784-2.736-.88-.944-1.056-1.376-1.056-2.672V401.6h3.536v-.624h-7.76v.624h3.536v2.752c0 1.312-.096 1.76-1.12 2.944-.784.896-1.712 1.792-2.784 2.736l.464.496c.928-.8 2-1.92 2.464-2.416.48-.528 1.248-1.36 1.344-1.856h.016zm7.264 7.856v-14.496h-.688v14.496h.688zm13.282-9.472v-.608h-8.751v-3.968h-.672v4.576h9.423zm-11.471 2.048v.608h13.343v-.608H70.376zm6.671 7.776c2.609 0 4.465-.944 4.465-2.464v-.608c0-1.52-1.856-2.464-4.465-2.464-2.608 0-4.463.944-4.463 2.464V412c0 1.52 1.855 2.464 4.463 2.464zm0-4.928c2.112 0 3.793.72 3.793 1.888v.544c0 1.168-1.68 1.888-3.793 1.888-2.111 0-3.791-.72-3.791-1.888v-.544c0-1.168 1.68-1.888 3.791-1.888zm19.155 4.576v-14.496h-.688v14.496h.688zm-7.536-3.664c2.352 0 3.504-1.712 3.504-4.192v-1.392c0-2.48-1.152-4.192-3.504-4.192-2.352 0-3.504 1.712-3.504 4.192v1.392c0 2.48 1.152 4.192 3.504 4.192zm0-9.136c1.904 0 2.816 1.456 2.816 3.744v1.008c0 2.288-.912 3.744-2.816 3.744s-2.816-1.456-2.816-3.744v-1.008c0-2.288.912-3.744 2.816-3.744zm26.627 1.936h-2.384v-3.632h-.688v8.512h.688v-4.24h2.384v-.64zm-4.864 2.704c-2.144.288-3.968.32-7.312.32v-5.088h5.888v-.64h-6.576v6.368c4.256 0 5.712-.032 8.08-.32l-.08-.64zm-1.68 8.512c2.656 0 4.272-1.216 4.272-2.656v-.576c0-1.44-1.616-2.656-4.272-2.656s-4.272 1.216-4.272 2.656v.576c0 1.44 1.616 2.656 4.272 2.656zm0-5.264c2.208 0 3.584.96 3.584 2.032v.576c0 1.072-1.376 2.032-3.584 2.032s-3.584-.96-3.584-2.032v-.576c0-1.072 1.376-2.032 3.584-2.032zm18.61.784v-10.368h-.688v10.368h.688zm-7.952-.864h-.688v4.816h9.024v-.64h-8.336v-4.176zm.624-4.576c.096.272.464.704 1.296 1.424.592.512 1.376 1.152 2.112 1.68l.4-.496c-.688-.48-1.632-1.216-2.304-1.84-1.104-1.024-1.216-1.376-1.216-2.608v-2.4h-.704v2.384c0 1.28.048 1.536-1.2 2.752-.656.624-1.52 1.36-2.576 2.16l.432.512c1.072-.848 1.76-1.44 2.352-1.984.832-.752 1.28-1.296 1.392-1.584h.016zm21.634 9.568v-14.496h-.704v14.496h.704zm-11.824-3.36c5.504 0 7.184-.08 9.76-.352l-.064-.624c-2.624.288-4.56.336-9.696.352v.624zm8.176-7.2c0-1.824-1.952-2.912-3.696-2.912-1.744 0-3.696 1.088-3.696 2.88v.976c0 1.792 1.952 2.864 3.696 2.864 1.744 0 3.696-1.072 3.696-2.896v-.912zm-.672.88c0 1.28-1.36 2.304-3.024 2.304s-3.024-1.024-3.024-2.272v-.912c0-1.248 1.36-2.272 3.024-2.272s3.024 1.024 3.024 2.304v.848zm20.707 4.432H153.7v-2.944h6.352v-.608h-2.544c.384-1.632.464-3.312.464-4.24v-.768h-4.48v.608h3.808v.4c0 1.024-.128 2.656-.496 4h-4.8c.416-1.52.48-3.232.48-4.16v-.848h-4.752v.608h4.08v.512c0 .992-.128 2.608-.528 3.888h-4.576v.608h6.32v2.944h-4.32v5.2h9.344v-5.2zm-.672 4.592h-8v-3.984h8v3.984zm3.251-7.184v.592h13.344v-.592h-13.344zm11.728 7.872v-.592h-8.992v-2h8.56v-3.136h-9.312v.592h8.64v1.968h-8.56v3.168h9.664zm-5.056-14.32c-2.208 0-4.448.736-4.448 2.384v.352c0 1.648 2.24 2.384 4.448 2.384s4.448-.8 4.448-2.384v-.352c0-1.648-2.24-2.384-4.448-2.384zm0 4.496c-1.856 0-3.76-.528-3.76-1.792v-.272c0-1.28 1.904-1.808 3.76-1.808 1.856 0 3.76.528 3.76 1.808v.272c0 1.2-1.904 1.792-3.76 1.792zm22.578 9.792v-14.496h-.688v5.248h-4.496v.656h4.496v8.592h.688zm-4.4-13.152h-6.608v9.184h3.36c1.504 0 3.776-.128 5.104-.384l-.096-.64c-1.36.272-3.36.384-4.768.384h-2.912v-7.888h5.92v-.656zM40.288 438.112v-.624h-8.256v-2.256h7.904v-3.504H31.28v.624h7.984v2.272H31.36v3.488h8.928zm-7.2-10.464c.096.304.528.72 1.424 1.376.624.448 1.264.88 2.064 1.392l.368-.48c-.96-.608-1.6-1.024-2.336-1.584-1.248-.96-1.232-1.376-1.232-2.608v-.848h3.376v-.624h-7.536v.624h3.472v.832c0 1.28.096 1.648-1.2 2.736-.704.592-1.536 1.168-2.608 1.888l.384.512c1.04-.72 1.728-1.216 2.352-1.712.816-.64 1.344-1.184 1.456-1.504h.016zm9.232-.896h-2.384v-3.136h-.688v7.12h.688v-3.36h2.384v-.624zm11.346-.032c0-1.68-1.663-2.784-3.487-2.784-1.825 0-3.473 1.104-3.473 2.784v.8c0 1.696 1.648 2.768 3.472 2.768 1.825 0 3.489-1.088 3.489-2.768v-.8zm-.688.704c0 1.36-1.215 2.208-2.8 2.208-1.584 0-2.783-.848-2.783-2.208v-.608c0-1.36 1.2-2.224 2.783-2.224 1.585 0 2.8.864 2.8 2.224v.608zm4.849 3.28v-7.088h-.688v7.088h.688zm-6.672 7.44c.928 0 2.127-.064 2.911-.192l-.064-.592c-.768.112-1.855.16-2.623.16h-2.465v-2.24h3.856v-3.424h-4.623v.624h3.968v2.192h-3.857v3.472h2.896zm6.672.176v-6.464h-4.048v.656h3.375v5.808h.672zm6.05-3.888c2.352 0 3.488-1.696 3.488-4.176v-.672h3.68v8.528h.688v-14.496h-.688v5.328h-3.68v-.08c0-2.48-1.136-4.176-3.488-4.176-2.352 0-3.488 1.696-3.488 4.176v1.392c0 2.48 1.136 4.176 3.488 4.176zm0-9.104c1.904 0 2.8 1.44 2.8 3.728v1.008c0 2.288-.896 3.728-2.8 3.728s-2.8-1.44-2.8-3.728v-1.008c0-2.288.896-3.728 2.8-3.728zm21.315 1.232h-2.704v-2.752h-.689v6.992h.688v-3.6h2.705v3.632h.688v-7.216h-.688v2.944zm-10.784-2.256v5.584c2.32 0 4.031-.064 6.144-.384l-.097-.64c-2.111.336-3.632.384-5.36.384v-4.944h-.688zm11.871 13.808v-.624h-8.655v-2.24h8.255v-3.44h-9.008v.624h8.337v2.208H76.95v3.472h9.329zm6.227-7.856c.112.464.736 1.072 1.136 1.488.72.736 1.664 1.664 2.544 2.48l.464-.464c-1.024-.944-2.016-1.904-2.784-2.736-.88-.944-1.056-1.376-1.056-2.672V425.6h3.536v-.624h-7.76v.624h3.536v2.752c0 1.312-.096 1.76-1.12 2.944-.784.896-1.712 1.792-2.784 2.736l.464.496c.928-.8 2-1.92 2.464-2.416.48-.528 1.248-1.36 1.344-1.856h.016zm7.264 7.856v-14.496h-.688v14.496h.688zm1.827.688h.704l.944-3.568h-1.072l-.576 3.568zm10.708-9.92c.144.32.528.704 1.296 1.376.592.512 1.232 1.04 2.128 1.696l.384-.48c-.912-.656-1.648-1.232-2.304-1.824-1.168-1.04-1.232-1.312-1.232-2.576v-1.04h3.424v-.624h-3.424v-1.92h-.688v1.92h-3.552v.624h3.552v1.04c0 1.28.048 1.52-1.2 2.704-.688.64-1.52 1.36-2.576 2.128l.416.496c1.008-.752 1.76-1.408 2.352-1.952.848-.768 1.28-1.216 1.408-1.568h.016zm-.944 4.432h-.688v4.624h9.136v-.64h-8.448v-3.984zm7.328.624h.688v-10.32h-.688v10.32zm13.363-2.544c.304-1.312.512-3.312.512-5.168v-1.6h-9.376v.608h8.704v1.36c0 1.408-.224 3.488-.528 4.8h-10V432h6.304v6.112h.688V432h6.352v-.608h-2.656zm16.866-2.064h-2.592v-5.712h-.688v14.496h.688v-8.144h2.592v-.64zm-12.72 5.312c4.608-2.592 5.872-3.776 5.872-6.688v-2.928h-6.192v.64h5.52v2.24c0 2.416-.8 3.488-5.568 6.144l.368.592zm30.083-7.392h-2.384v-3.632h-.688v8.512h.688v-4.24h2.384v-.64zm-4.864 2.704c-2.144.288-3.968.32-7.312.32v-5.088h5.888v-.64h-6.576v6.368c4.256 0 5.712-.032 8.08-.32l-.08-.64zm-1.68 8.512c2.656 0 4.272-1.216 4.272-2.656v-.576c0-1.44-1.616-2.656-4.272-2.656s-4.272 1.216-4.272 2.656v.576c0 1.44 1.616 2.656 4.272 2.656zm0-5.264c2.208 0 3.584.96 3.584 2.032v.576c0 1.072-1.376 2.032-3.584 2.032s-3.584-.96-3.584-2.032v-.576c0-1.072 1.376-2.032 3.584-2.032zm18.61.784v-10.368h-.688v10.368h.688zm-7.952-.864h-.688v4.816h9.024v-.64h-8.336v-4.176zm.624-4.576c.096.272.464.704 1.296 1.424.592.512 1.376 1.152 2.112 1.68l.4-.496c-.688-.48-1.632-1.216-2.304-1.84-1.104-1.024-1.216-1.376-1.216-2.608v-2.4h-.704v2.384c0 1.28.048 1.536-1.2 2.752-.656.624-1.52 1.36-2.576 2.16l.432.512c1.072-.848 1.76-1.44 2.352-1.984.832-.752 1.28-1.296 1.392-1.584h.016zm21.635 9.568v-14.496h-.704v14.496h.704zm-11.824-3.36c5.504 0 7.184-.08 9.76-.352l-.064-.624c-2.624.288-4.56.336-9.696.352v.624zm8.176-7.2c0-1.824-1.952-2.912-3.696-2.912-1.744 0-3.696 1.088-3.696 2.88v.976c0 1.792 1.952 2.864 3.696 2.864 1.744 0 3.696-1.072 3.696-2.896v-.912zm-.672.88c0 1.28-1.36 2.304-3.024 2.304s-3.024-1.024-3.024-2.272v-.912c0-1.248 1.36-2.272 3.024-2.272s3.024 1.024 3.024 2.304v.848zm20.706 4.432h-4.352v-2.944h6.352v-.608h-2.544c.384-1.632.464-3.312.464-4.24v-.768h-4.48v.608h3.808v.4c0 1.024-.128 2.656-.496 4h-4.8c.416-1.52.48-3.232.48-4.16v-.848h-4.752v.608h4.08v.512c0 .992-.128 2.608-.528 3.888h-4.576v.608h6.32v2.944h-4.32v5.2h9.344v-5.2zm-.672 4.592h-8v-3.984h8v3.984zm3.251-7.184v.592h13.344v-.592h-13.344zm11.728 7.872v-.592h-8.992v-2h8.56v-3.136h-9.312v.592h8.64v1.968h-8.56v3.168h9.664zm-5.056-14.32c-2.208 0-4.448.736-4.448 2.384v.352c0 1.648 2.24 2.384 4.448 2.384s4.448-.8 4.448-2.384v-.352c0-1.648-2.24-2.384-4.448-2.384zm0 4.496c-1.856 0-3.76-.528-3.76-1.792v-.272c0-1.28 1.904-1.808 3.76-1.808 1.856 0 3.76.528 3.76 1.808v.272c0 1.2-1.904 1.792-3.76 1.792zM40.576 462.112v-14.496h-.688v5.248h-4.496v.656h4.496v8.592h.688zm-4.4-13.152h-6.608v9.184h3.36c1.504 0 3.776-.128 5.104-.384l-.096-.64c-1.36.272-3.36.384-4.768.384h-2.912v-7.888h5.92v-.656zm21.395 13.152v-.624h-8.256v-2.256h7.904v-3.504h-8.657v.624h7.985v2.272h-7.904v3.488h8.928zm-7.2-10.464c.096.304.527.72 1.423 1.376.625.448 1.265.88 2.065 1.392l.367-.48c-.96-.608-1.6-1.024-2.335-1.584-1.248-.96-1.233-1.376-1.233-2.608v-.848h3.377v-.624h-7.536v.624h3.471v.832c0 1.28.096 1.648-1.2 2.736-.704.592-1.536 1.168-2.608 1.888l.385.512c1.04-.72 1.728-1.216 2.352-1.712.816-.64 1.343-1.184 1.456-1.504h.016zm9.231-.896H57.22v-3.136h-.688v7.12h.688v-3.36h2.383v-.624zm11.347-.032c0-1.68-1.664-2.784-3.488-2.784s-3.472 1.104-3.472 2.784v.8c0 1.696 1.648 2.768 3.472 2.768s3.488-1.088 3.488-2.768v-.8zm-.688.704c0 1.36-1.216 2.208-2.8 2.208-1.584 0-2.784-.848-2.784-2.208v-.608c0-1.36 1.2-2.224 2.784-2.224 1.584 0 2.8.864 2.8 2.224v.608zm4.848 3.28v-7.088h-.688v7.088h.688zm-6.672 7.44c.928 0 2.128-.064 2.912-.192l-.064-.592c-.768.112-1.856.16-2.624.16h-2.464v-2.24h3.856v-3.424h-4.624v.624h3.968v2.192h-3.856v3.472h2.896zm6.672.176v-6.464h-4.048v.656h3.376v5.808h.672zm6.05-3.888c2.352 0 3.488-1.696 3.488-4.176v-.672h3.68v8.528h.689v-14.496h-.689v5.328h-3.68v-.08c0-2.48-1.136-4.176-3.488-4.176-2.352 0-3.488 1.696-3.488 4.176v1.392c0 2.48 1.136 4.176 3.488 4.176zm0-9.104c1.904 0 2.8 1.44 2.8 3.728v1.008c0 2.288-.895 3.728-2.8 3.728-1.904 0-2.8-1.44-2.8-3.728v-1.008c0-2.288.897-3.728 2.8-3.728zm21.315 1.232H99.77v-2.752h-.688v6.992h.688v-3.6h2.704v3.632h.688v-7.216h-.688v2.944zm-10.784-2.256v5.584c2.32 0 4.032-.064 6.144-.384l-.096-.64c-2.112.336-3.632.384-5.36.384v-4.944h-.688zm11.872 13.808v-.624h-8.656v-2.24h8.256v-3.44h-9.008v.624h8.336v2.208h-8.256v3.472h9.328zm6.226-7.856c.112.464.736 1.072 1.136 1.488.72.736 1.664 1.664 2.544 2.48l.464-.464c-1.024-.944-2.016-1.904-2.784-2.736-.88-.944-1.056-1.376-1.056-2.672V449.6h3.536v-.624h-7.76v.624h3.536v2.752c0 1.312-.096 1.76-1.12 2.944-.784.896-1.712 1.792-2.784 2.736l.464.496c.928-.8 2-1.92 2.464-2.416.48-.528 1.248-1.36 1.344-1.856h.016zm7.264 7.856v-14.496h-.688v14.496h.688zm13.331-7.552h-8.784v-4.992h8.64v-.624h-9.328v6.24h4.288v4.16h-6.336v.608h13.344v-.608h-6.32v-4.16h4.496v-.624zm19.506-2.416h-2.384v-4.528h-.688v10.576h.688v-5.408h2.384v-.64zm-5.2-2.704h-3.888v-1.968h-.688v1.968h-3.792v.608h8.368v-.608zm-4.224 7.216c1.728 0 3.248-.96 3.248-2.368v-.864c0-1.408-1.52-2.368-3.248-2.368-1.728 0-3.248.976-3.248 2.368v.864c0 1.408 1.52 2.368 3.248 2.368zm0-.608c-1.392 0-2.592-.72-2.592-1.776v-.832c0-1.056 1.216-1.776 2.592-1.776 1.376 0 2.592.72 2.592 1.776v.832c0 1.056-1.2 1.776-2.592 1.776zm-.704 1.872h-.688v4h8.928v-.64h-8.24v-3.36zm17.651-.624h-.688v4.64h9.136v-.64h-8.448v-4zm8.016.72v-10.4h-.688v3.888h-3.968V448.4h-.688v2.768h-4.96V448.4h-.688v7.072h6.336v-3.344h3.968v5.888h.688zm-10.304-6.224h4.96v3.056h-4.96v-3.056zm-114.516 34.32v-14.496h-.688v14.496h.688zm-4.256-3.872v-9.392h-.688v3.728h-5.2v-3.728h-.688v9.392h6.576zm-5.888-5.024h5.2v4.384h-5.2v-4.384zm13.794-4.192v.624h9.04v1.52c0 2.256-.24 4.064-.608 6.048l.657.08c.4-2.128.623-4.032.623-6.544v-1.728h-9.712zm5.44 4.736v5.584h-3.104v-5.584h-.672v5.584h-3.391v.608h13.343v-.608H50.37v-5.584H49.7zm19.187-6.144h-.688v5.728h-2.512v-5.424h-.688v13.472h.688v-7.408h2.512v8.128h.688v-14.496zm-12.384 2.64v.64h7.2v-.64h-3.136v-2.224h-.688v2.224h-3.376zm3.696 8.112c2.08 0 3.104-1.456 3.104-2.688v-.928c0-1.232-1.024-2.688-3.104-2.688s-3.104 1.456-3.104 2.688v.928c0 1.232 1.024 2.688 3.104 2.688zm0-5.664c1.584 0 2.432 1.072 2.432 2.112v.8c0 1.04-.848 2.112-2.432 2.112s-2.432-1.072-2.432-2.112v-.8c0-1.04.848-2.112 2.432-2.112zm12.242 3.088h4.257v3.552h-6.32v.608h13.343v-.608h-6.335v-3.552h4.272v-7.024h-.672v2.736h-7.872v-2.72h-.672v7.008zm8.545-.608h-7.872v-3.072h7.872v3.072zm15.65-7.568h-.688v14.496h.688v-14.496zm-6.464 5.68h2.976v8.096h.688V471.92h-.688v4.72H90.17v.656zm-2.256 1.04c.096.464.56 1.008 1.12 1.664.592.704 1.216 1.344 2 2.144l.464-.448c-.816-.8-1.504-1.52-2.208-2.384-.96-1.184-1.056-1.696-1.056-2.912v-3.648h-.704v3.648c0 1.248-.144 1.984-1.136 3.104-.784.896-1.296 1.456-2.256 2.352l.448.464c.992-.928 1.648-1.664 2.096-2.176.512-.592 1.136-1.344 1.216-1.808h.016zm21.651-1.696v-.736c0-1.984-2.112-3.328-4.672-3.328-2.592 0-4.672 1.344-4.672 3.328v.736c0 1.088.672 2.016 1.728 2.624v4.08h-3.728v.608h13.344v-.608h-3.728v-4.096c1.04-.592 1.728-1.52 1.728-2.608zm-4.672-3.408c2.336 0 3.984 1.184 3.984 2.688v.704c0 1.504-1.648 2.704-3.984 2.704-2.368 0-3.984-1.2-3.984-2.704v-.704c0-1.504 1.616-2.688 3.984-2.688zm0 6.752c.816 0 1.6-.144 2.272-.416v3.776h-4.544v-3.76c.672.256 1.44.4 2.272.4zm7.57 4.72h1.28v-1.376h-1.28v1.376z" opacity=".6"/>
</svg>
