<svg xmlns="http://www.w3.org/2000/svg" width="54" height="54" fill="none" viewBox="0 0 54 54">
    <path fill="#EB5151" d="M27 0l5.625 6.006L40.5 3.617l1.869 8.014 8.014 1.869-2.389 7.875L54 27l-6.006 5.625 2.389 7.875-8.014 1.869-1.869 8.014-7.875-2.389L27 54l-5.625-6.006-7.875 2.389-1.869-8.014L3.617 40.5l2.389-7.875L0 27l6.006-5.625L3.617 13.5l8.014-1.869L13.5 3.617l7.875 2.389L27 0z"/>
    <path stroke="#111" stroke-linecap="round" stroke-width="3.2" d="M38.44 26.563H17.065M25.546 17L16 26.546l9.546 9.546"/>
</svg>
